<?xml version="1.0" encoding="UTF-8" standalone="no"?>
<!-- Created with Inkscape (http://www.inkscape.org/) -->

<svg
   xmlns:osb="http://www.openswatchbook.org/uri/2009/osb"
   xmlns:dc="http://purl.org/dc/elements/1.1/"
   xmlns:cc="http://creativecommons.org/ns#"
   xmlns:rdf="http://www.w3.org/1999/02/22-rdf-syntax-ns#"
   xmlns:svg="http://www.w3.org/2000/svg"
   xmlns="http://www.w3.org/2000/svg"
   xmlns:xlink="http://www.w3.org/1999/xlink"
   xmlns:sodipodi="http://sodipodi.sourceforge.net/DTD/sodipodi-0.dtd"
   xmlns:inkscape="http://www.inkscape.org/namespaces/inkscape"
   width="210mm"
   height="297mm"
   viewBox="0 0 210 297"
   version="1.1"
   id="svg8"
   inkscape:version="0.92.3 (2405546, 2018-03-11)"
   sodipodi:docname="logo maldestor 1 .svg">
  <defs
     id="defs2">
    <linearGradient
       id="linearGradient6537"
       osb:paint="solid">
      <stop
         style="stop-color:#000000;stop-opacity:1;"
         offset="0"
         id="stop6535" />
    </linearGradient>
    <linearGradient
       inkscape:collect="always"
       id="linearGradient4531">
      <stop
         style="stop-color:#000000;stop-opacity:1;"
         offset="0"
         id="stop4527" />
      <stop
         style="stop-color:#000000;stop-opacity:0;"
         offset="1"
         id="stop4529" />
    </linearGradient>
    <radialGradient
       inkscape:collect="always"
       xlink:href="#linearGradient4531"
       id="radialGradient4533"
       cx="90.029442"
       cy="147.61588"
       fx="90.029442"
       fy="147.61588"
       r="80.697914"
       gradientTransform="matrix(0.72646728,-1.1385846,1.4713384,0.93877887,-180.73177,124.10009)"
       gradientUnits="userSpaceOnUse" />
    <filter
       inkscape:collect="always"
       style="color-interpolation-filters:sRGB"
       id="filter5065"
       x="-0.14748197"
       width="1.2949639"
       y="-0.15511034"
       height="1.3102207">
      <feGaussianBlur
         inkscape:collect="always"
         stdDeviation="9.9179059"
         id="feGaussianBlur5067" />
    </filter>
    <filter
       inkscape:collect="always"
       style="color-interpolation-filters:sRGB"
       id="filter7076"
       x="-0.22446446"
       width="1.4489289"
       y="-0.23413966"
       height="1.4682793">
      <feGaussianBlur
         inkscape:collect="always"
         stdDeviation="8.5549241"
         id="feGaussianBlur7078" />
    </filter>
  </defs>
  <sodipodi:namedview
     id="base"
     pagecolor="#ffffff"
     bordercolor="#666666"
     borderopacity="1.0"
     inkscape:pageopacity="0.0"
     inkscape:pageshadow="2"
     inkscape:zoom="0.7"
     inkscape:cx="311.38522"
     inkscape:cy="607.45099"
     inkscape:document-units="mm"
     inkscape:current-layer="layer4"
     showgrid="false"
     inkscape:window-width="1366"
     inkscape:window-height="717"
     inkscape:window-x="0"
     inkscape:window-y="0"
     inkscape:window-maximized="1" />
  <metadata
     id="metadata5">
    <rdf:RDF>
      <cc:Work
         rdf:about="">
        <dc:format>image/svg+xml</dc:format>
        <dc:type
           rdf:resource="http://purl.org/dc/dcmitype/StillImage" />
        <dc:title></dc:title>
      </cc:Work>
    </rdf:RDF>
  </metadata>
  <g
     inkscape:label="Layer 1"
     inkscape:groupmode="layer"
     id="layer1"
     style="display:inline"
     sodipodi:insensitive="true">
    <ellipse
       id="path3719"
       cx="103.37648"
       cy="145.80952"
       rx="80.697914"
       ry="76.729164"
       style="fill:#000c69;fill-opacity:1;stroke:url(#radialGradient4533);stroke-width:0.26458332;filter:url(#filter5065)" />
  </g>
  <g
     inkscape:groupmode="layer"
     id="layer2"
     inkscape:label="Layer 2"
     sodipodi:insensitive="true">
    <ellipse
       style="fill:#430a69;fill-opacity:1;stroke:none;stroke-width:0.271088;stroke-opacity:1;filter:url(#filter7076)"
       id="path7026"
       cx="102.43155"
       cy="148.83333"
       rx="45.735119"
       ry="43.845238" />
  </g>
  <g
     inkscape:groupmode="layer"
     id="layer3"
     inkscape:label="Layer 3"
     sodipodi:insensitive="true">
    <ellipse
       style="fill:none;fill-opacity:1;stroke-width:0.26458332"
       id="path4645"
       cx="-41.577381"
       cy="146.56548"
       rx="47.625"
       ry="23.434523" />
    <path
       id="path7091"
       style="fill:#000000;fill-opacity:1;stroke:none;stroke-width:0.26458332;stroke-opacity:1"
       d="m 124.98944,109.72904 c 0.41178,-0.56718 0.88127,-1.08693 1.33577,-1.6194 0.29119,-0.33623 0.58454,-0.67313 0.90307,-0.98358 0.24942,-0.27152 0.49882,-0.54551 0.7711,-0.79485 0.32248,-0.30581 0.68692,-0.55702 1.04926,-0.81185 0.39442,-0.24388 0.72858,-0.55747 1.06195,-0.87625 0.51805,-0.43617 1.072,-0.82599 1.62671,-1.21339 0.52007,-0.33108 1.01307,-0.69959 1.5057,-1.06901 1.6095,-1.00901 3.22234,-1.95704 4.94418,-2.732865 0.75465,-0.38872 1.51037,-0.773287 2.26249,-1.167222 0.84134,-0.400865 1.70384,-0.731139 2.57716,-1.051092 0.553,-0.244938 1.1199,-0.374449 1.71928,-0.4102 0.85011,-0.04844 1.69676,-0.173011 2.54068,-0.291293 1.16966,-0.145613 2.34778,-0.193582 3.52509,-0.222519 0.95546,-0.04919 1.91409,0.01749 2.85353,0.195765 0.98965,0.149595 1.9658,0.369697 2.94811,0.559276 1.31621,0.289338 2.62714,0.596072 3.9198,0.978146 1.31037,0.353126 2.55681,0.851495 3.79007,1.411174 1.19852,0.57806 2.35766,1.2432 3.50933,1.91011 1.18081,0.65756 2.24382,1.50365 3.26227,2.38644 1.0074,0.80064 1.94488,1.67757 2.75201,2.68013 0.70514,0.91371 1.28016,1.90573 1.79559,2.93503 0.53569,1.06923 0.94923,2.19431 1.34206,3.32217 0.43199,1.10869 0.83061,2.22756 1.22829,3.34898 0.39699,1.09691 0.68023,2.2258 0.92995,3.36362 0.30711,1.15043 0.44335,2.33067 0.52509,3.51516 0.13259,1.23986 0.22882,2.48185 0.28318,3.72746 0.0529,1.36952 0.0512,2.73745 -0.028,4.10545 -0.0774,1.46332 -0.27907,2.91635 -0.51735,4.36104 -0.25522,1.4148 -0.58691,2.81032 -1.02656,4.17886 -0.41779,1.19281 -0.91306,2.36139 -1.52071,3.46995 -0.62744,1.02664 -1.33833,2.00173 -2.07152,2.95505 -0.73505,0.87849 -1.46079,1.76331 -2.24493,2.59878 -0.76658,0.8639 -1.63634,1.60717 -2.58543,2.26058 -0.9077,0.63477 -1.82316,1.25127 -2.77798,1.81284 -0.14173,0.0826 -0.28302,0.16593 -0.42518,0.24777 -1.26074,0.72578 -2.51461,1.46368 -3.78351,2.1751 -0.61051,0.34228 -1.32346,0.57547 -1.97224,0.83467 -1.0985,0.45662 -2.23532,0.81921 -3.38473,1.12362 -1.23237,0.31888 -2.4782,0.59089 -3.73093,0.81712 -1.46797,0.21829 -2.95547,0.32056 -4.43879,0.27547 -1.49088,-0.0144 -2.96045,-0.2407 -4.41993,-0.52593 -1.39911,-0.28734 -2.72638,-0.80271 -4.01899,-1.3974 -1.15743,-0.5183 -2.20757,-1.23066 -3.14866,-2.075 -0.74915,-0.73654 -1.30423,-1.62064 -1.79635,-2.54001 -0.41448,-0.82825 -0.81837,-1.66524 -1.13921,-2.53471 -0.30819,-0.76465 -0.50808,-1.5677 -0.67955,-2.3724 -0.14587,-0.93353 -0.27139,-1.86839 -0.29176,-2.81373 -0.0211,-0.94295 0.0891,-1.87974 0.23967,-2.80865 0.11806,-0.83284 0.39796,-1.62511 0.75479,-2.38282 0.22406,-0.40481 0.43555,-0.86567 0.81198,-1.15395 3.15127,-2.24019 2.61764,-1.85428 4.86009,-2.30994 0.53656,-0.0654 1.09924,-0.23126 1.63724,-0.12199 0.37718,0.0989 0.75575,0.24736 1.09322,0.44393 0.35629,0.17154 0.68265,0.39668 0.99129,0.64203 0.25046,0.2044 0.46483,0.43694 0.64947,0.70054 0.15981,0.20889 0.20375,0.47328 0.32917,0.69984 0.14911,0.31848 0.18229,0.67235 0.27853,1.00831 0.12232,0.42577 0.18121,0.8637 0.20986,1.30453 0.0242,0.43723 0.0232,0.87502 0.0216,1.31272 0.0361,0.43145 -0.0509,0.84929 -0.14224,1.26763 -0.1181,0.4153 -0.25143,0.82339 -0.32798,1.2493 -0.0643,0.48367 -0.26125,0.92017 -0.48643,1.34674 -0.20778,0.43118 -0.47585,0.82487 -0.76733,1.20258 -0.29578,0.43664 -0.61822,0.8528 -0.97851,1.23782 -0.44416,0.39276 -0.90113,0.77046 -1.34275,1.1663 -1.47215,1.30848 -3.28075,2.14141 -4.97498,3.11991 -0.77278,0.40022 -1.55548,0.80287 -2.36665,1.12299 -1.00065,0.42436 -2.02351,0.78769 -3.03774,1.17707 -1.22059,0.37693 -2.45613,0.71093 -3.70165,0.99571 -1.62384,0.38277 -3.25572,0.72201 -4.90991,0.94207 -1.86839,0.27111 -3.73943,0.51204 -5.6227,0.64981 -1.97743,0.21854 -3.95669,0.32358 -5.94492,0.28767 -2.0075,-0.0909 -3.99907,-0.36462 -5.99301,-0.59877 -2.09592,-0.2328 -4.15529,-0.68772 -6.205297,-1.16891 -2.09803,-0.45444 -4.1501,-1.07074 -6.20021,-1.70032 -1.917158,-0.63072 -3.790665,-1.38726 -5.613922,-2.25129 -1.769099,-0.88325 -3.517775,-1.80682 -5.227227,-2.80085 -1.701982,-0.98534 -3.305117,-2.12915 -4.872646,-3.31368 -1.61884,-1.2425 -3.209306,-2.52181 -4.808897,-3.78906 -1.521786,-1.14321 -2.92494,-2.42269 -4.295891,-3.73948 -1.198507,-1.25143 -2.226834,-2.65164 -3.172259,-4.10012 -0.834631,-1.26871 -1.690262,-2.52133 -2.419366,-3.85473 -0.704228,-1.28173 -1.134846,-2.68845 -1.520516,-4.09222 -0.392067,-1.50805 -0.72273,-3.02853 -1.15671,-4.52581 -0.471451,-1.36076 -0.86836,-2.73893 -1.10303,-4.16027 -0.161837,-1.40983 -0.02763,-2.82157 0.102828,-4.22666 0.10173,-1.12041 0.235217,-2.23964 0.392917,-3.35368 0.135247,-0.96718 0.365466,-1.9129 0.698841,-2.82987 0.361114,-0.92419 0.880724,-1.77158 1.406858,-2.60845 0.525828,-0.78455 0.957583,-1.62624 1.414198,-2.4516 0.429337,-0.72778 0.856737,-1.456755 1.325878,-2.159784 0.608824,-0.885931 1.358119,-1.653773 2.109837,-2.416525 0.870747,-0.856257 1.839585,-1.597758 2.852651,-2.275617 2.150292,-1.449692 4.415623,-2.696565 6.666719,-3.983464 0.754827,-0.405122 1.551535,-0.701707 2.353739,-0.994709 0.421026,-0.161414 0.828619,-0.426336 1.276675,-0.507082 1.579512,-0.21033 0.381826,-0.05806 -3.018224,1.867109 0,0 3.609943,-1.677868 3.609943,-1.677868 v 0 c -3.231938,2.020623 -2.211871,1.776531 -3.743465,2.243145 -0.405061,0.178033 -0.821317,0.331518 -1.229889,0.501081 -0.781931,0.285465 -1.545402,0.611971 -2.278433,1.008888 5.983991,-3.48176 1.289746,-0.790651 -0.02828,0.132557 -1.012484,0.660701 -1.986055,1.368094 -2.869785,2.1967 -0.742092,0.742204 -1.489225,1.481836 -2.102225,2.337665 -0.489384,0.687002 -0.904719,1.419895 -1.353587,2.133235 -0.471506,0.821879 -0.876208,1.684829 -1.408674,2.469789 -0.517895,0.82357 -1.05315,1.64071 -1.440312,2.53712 -0.346943,0.89137 -0.598104,1.80832 -0.730904,2.75745 -0.194863,1.10721 -0.309525,2.23236 -0.437348,3.34869 -0.135046,1.37669 -0.292693,2.75707 -0.152548,4.14148 0.220101,1.4098 0.606285,2.77575 1.065556,4.12621 0.436936,1.4974 0.768959,3.01899 1.167059,4.5263 0.380502,1.37461 0.791649,2.75539 1.477637,4.01387 0.724355,1.32416 1.56845,2.57254 2.389187,3.83807 0.926278,1.42587 1.929784,2.80718 3.110678,4.03545 1.358394,1.30991 2.758125,2.57221 4.258122,3.72 1.596072,1.26722 3.186152,2.54276 4.806812,3.77839 1.565219,1.16672 3.159651,2.29918 4.854961,3.2715 1.702694,0.9849 3.438509,1.91308 5.206664,2.77525 1.811099,0.84612 3.667938,1.59663 5.569298,2.21617 2.04458,0.62651 4.094547,1.22803 6.187117,1.67745 2.04297,0.47042 4.09546,0.91316 6.18352,1.13245 1.98812,0.23319 3.97667,0.48874 5.97908,0.56041 1.9811,0.0177 3.95342,-0.10972 5.92398,-0.31561 1.88222,-0.15726 3.75348,-0.40852 5.62249,-0.67933 1.6569,-0.2486 3.29451,-0.59739 4.92168,-0.99621 1.24139,-0.30917 2.48489,-0.62432 3.6919,-1.05136 1.02024,-0.38398 2.0389,-0.77043 3.04201,-1.19801 0.79938,-0.35848 1.59244,-0.73838 2.35469,-1.1706 -5.74221,3.33527 -2.92969,1.83087 -1.7373,0.84567 0.43121,-0.40428 0.87669,-0.79354 1.33926,-1.1617 0.40022,-0.3214 0.70822,-0.7387 1.00292,-1.15631 0.24799,-0.39474 0.59279,-0.72547 0.79368,-1.1534 0.19527,-0.4051 0.45298,-0.7775 0.53447,-1.22825 0.0501,-0.43407 0.14696,-0.86454 0.31592,-1.26887 0.0773,-0.39964 0.22098,-0.78564 0.18351,-1.19852 -0.001,-0.43043 5.3e-4,-0.86107 -0.013,-1.29132 -0.0206,-0.41131 -0.0561,-0.82377 -0.17068,-1.22137 -0.0952,-0.3088 -0.14531,-0.62322 -0.25095,-0.92646 -0.11817,-0.21622 -0.17307,-0.44946 -0.29946,-0.65952 -0.17222,-0.22673 -0.35915,-0.43861 -0.58949,-0.60914 -0.29174,-0.22876 -0.60838,-0.42305 -0.94394,-0.58122 -0.32471,-0.14123 -0.64886,-0.29823 -1.008,-0.32067 -0.5215,0.0183 -1.03895,0.0997 -1.5497,0.2037 -0.28893,0.0583 -0.58826,0.0928 -0.87271,0.17081 -1.16172,0.31873 -4.08442,3.05374 2.84415,-1.73816 -0.36281,0.34799 0.14865,-0.11904 -0.26137,0.17818 -0.28606,0.20736 -0.47757,0.56172 -0.64988,0.85634 -0.40896,0.69799 -0.68403,1.48452 -0.82039,2.28112 -0.18,0.90262 -0.27789,1.8245 -0.27719,2.74519 -0.003,0.92385 0.13131,1.82827 0.26762,2.7407 0.15686,0.78939 0.36383,1.57259 0.65123,2.32495 0.29765,0.85832 0.70201,1.67688 1.10098,2.49173 0.46345,0.88313 0.99535,1.72839 1.71774,2.42729 0.90902,0.81921 1.93169,1.49893 3.05368,1.99487 1.27468,0.57181 2.59012,1.05062 3.96453,1.32276 1.44757,0.26581 2.90368,0.4736 4.37947,0.47456 1.47301,0.008 2.94937,-0.0859 4.40105,-0.34617 1.25146,-0.24801 2.50063,-0.51544 3.73046,-0.85652 1.13831,-0.32548 2.2667,-0.6902 3.35502,-1.15943 0.50399,-0.21077 1.01185,-0.41733 1.5046,-0.65377 0.15156,-0.0727 0.59432,-0.31396 0.44965,-0.22835 -0.76027,0.44991 -4.20944,2.43067 -2.47807,1.43608 0.95822,-0.56538 1.91146,-1.13117 2.80377,-1.79972 0.96095,-0.61897 1.85396,-1.31613 2.61302,-2.17774 0.79204,-0.82534 1.51986,-1.69948 2.26683,-2.5648 0.73056,-0.94483 1.44723,-1.9014 2.09187,-2.90788 0.653,-1.06822 1.12093,-2.24018 1.57109,-3.40566 0.46112,-1.3493 0.79606,-2.72955 1.06277,-4.13009 0.24257,-1.4309 0.45103,-2.87036 0.52684,-4.32096 0.0892,-1.35385 0.0928,-2.70745 0.0332,-4.06335 -0.0483,-1.24252 -0.13844,-2.48208 -0.28153,-3.71755 -0.0733,-1.16584 -0.19942,-2.32894 -0.50881,-3.45935 -0.23792,-1.12462 -0.51002,-2.24051 -0.89507,-3.32527 -0.40007,-1.12126 -0.80268,-2.23921 -1.23667,-3.34778 -0.38473,-1.11264 -0.78172,-2.22641 -1.31237,-3.27946 -0.50849,-1.00073 -1.07701,-1.96674 -1.75704,-2.86253 -0.79296,-0.98351 -1.71029,-1.84393 -2.7001,-2.62878 -1.00873,-0.85966 -2.05521,-1.68611 -3.22105,-2.32528 -1.14992,-0.64949 -2.29253,-1.32074 -3.49073,-1.87756 -1.22024,-0.54458 -2.46348,-1.01259 -3.7526,-1.37043 -1.29427,-0.36586 -2.6042,-0.671156 -3.92351,-0.932919 -0.98628,-0.191013 -1.97255,-0.381429 -2.96536,-0.535874 -0.92356,-0.135816 -1.85296,-0.201702 -2.78682,-0.150196 -1.17091,0.03455 -2.34311,0.08998 -3.50331,0.261715 -0.86243,0.124217 -1.72677,0.241033 -2.59549,0.311026 -0.56481,0.07847 -1.1001,0.266499 -1.63251,0.467088 -0.86982,0.30946 -1.7111,0.68534 -2.54063,1.09049 -0.75679,0.39782 -1.51941,0.78458 -2.28682,1.16142 -1.44998,0.687 -4.30745,2.3312 1.82088,-1.17022 -0.52006,0.35504 -0.99303,0.7734 -1.54235,1.08652 -0.53951,0.38332 -1.09105,0.74997 -1.60298,1.17022 -0.37748,0.26938 -0.63757,0.68026 -1.05485,0.89597 -0.34558,0.27228 -0.7305,0.48472 -1.05585,0.78139 -0.28211,0.23422 -0.52466,0.4894 -0.78708,0.73983 -0.26908,0.36989 -0.65834,0.6319 -0.92821,1.00567 -0.47481,0.49307 -0.9356,1.02262 -1.32143,1.58683 0,0 -3.64838,1.55873 -3.64838,1.55873 z M 42.359342,166.8378 c -1.441503,0.65685 -4.197128,2.30906 1.846974,-1.15306 -0.271854,0.15036 -0.469191,0.38571 -0.702016,0.5808 -0.334891,0.26644 -0.612407,0.60956 -0.865341,0.95384 -0.245676,0.22372 -0.336185,0.54462 -0.509236,0.81203 -0.154633,0.27724 -0.275767,0.57612 -0.391356,0.87247 -0.110656,0.32134 -0.116924,0.663 -0.158027,0.99689 -0.09257,0.35953 -0.171921,0.71948 -0.217625,1.08795 -0.04061,0.31766 0.0594,0.63136 0.153966,0.93155 0.109543,0.31331 0.246258,0.60243 0.48019,0.84056 0.259998,0.25092 0.57119,0.45129 0.882562,0.63493 0.437227,0.28015 0.918755,0.42203 1.426155,0.50486 0.583774,0.19584 1.194477,0.2612 1.80522,0.30271 0.757521,0.0847 1.497161,-0.0761 2.234372,-0.22863 0.931883,-0.16521 1.857581,-0.37201 2.767679,-0.63279 1.515293,-0.49507 5.176419,-2.72289 -0.833377,0.70139 0.801505,-0.50382 1.556184,-1.07038 2.235679,-1.72937 0.579628,-0.58317 1.080908,-1.23131 1.525056,-1.92134 0.365858,-0.59635 0.693661,-1.21273 0.973513,-1.85378 0.342366,-0.71915 0.545994,-1.48984 0.766678,-2.25179 0.262403,-0.80152 0.37093,-1.63423 0.428964,-2.47175 0.07603,-0.78562 0.02281,-1.56468 -0.06804,-2.34539 -0.124854,-0.70803 -0.263708,-1.41251 -0.497824,-2.09323 -0.229378,-0.62661 -0.467125,-1.24804 -0.805413,-1.82475 -0.384344,-0.55528 -0.775166,-1.10472 -1.251304,-1.58501 -0.428326,-0.41634 -0.815417,-0.88047 -1.319343,-1.20813 -0.568859,-0.416 -1.204886,-0.70696 -1.834007,-1.01492 -0.682193,-0.23913 -1.364472,-0.48261 -2.053087,-0.70423 -0.637516,-0.18208 -1.296987,-0.24249 -1.946561,-0.36721 -0.794665,-0.13185 -1.603393,0.005 -2.391515,0.12221 -0.810927,0.1915 -1.62524,0.36213 -2.437861,0.54369 -0.738147,0.24685 -1.457737,0.54961 -2.140812,0.92473 7.044875,-4.2067 3.55187,-2.03191 2.665484,-1.52118 -1.23789,0.71328 -2.472174,1.43289 -3.715629,2.13642 -0.334576,0.1893 -0.685807,0.33855 -1.017259,0.53744 5.922928,-3.58651 2.433643,-1.4416 1.160875,-0.44862 -0.680675,0.55421 -1.384556,1.07703 -2.051417,1.64814 -0.667282,0.55958 -1.308574,1.15014 -1.947786,1.74148 -0.532953,0.51031 -0.99255,1.08863 -1.436029,1.67639 -0.409495,0.56861 -0.826317,1.13166 -1.238956,1.69801 -0.390433,0.47557 -0.731113,0.98437 -1.04358,1.51322 -0.253604,0.37027 -0.359551,0.80418 -0.500243,1.22292 -0.120528,0.43487 -0.207954,0.87542 -0.330057,1.31034 -0.08886,0.43478 -0.168259,0.86866 -0.275889,1.29957 -0.0855,0.34024 -0.128124,0.68744 -0.153728,1.03651 -0.02252,0.4236 -0.02069,0.84807 -0.02186,1.27213 -2.22e-4,0.43621 0.0057,0.87239 0.0069,1.3086 0.0035,0.35187 -0.02466,0.70194 0.05455,1.0467 0.121846,0.44867 0.159846,0.91198 0.185627,1.37425 0.04901,0.4484 0.167156,0.88473 0.236135,1.33003 0.08755,0.38454 0.197961,0.76357 0.322025,1.13782 0.149158,0.42806 0.305178,0.85183 0.445997,1.28367 0.166706,0.4111 0.355436,0.81293 0.555331,1.20897 0.226444,0.30157 0.402627,0.63919 0.633791,0.93626 0.229016,0.33457 0.464032,0.66339 0.68688,1.0016 0.258095,0.28888 0.455176,0.62598 0.747813,0.88283 0.318024,0.33293 0.623607,0.67746 0.943615,1.00853 0.338016,0.33621 0.703046,0.64504 1.041736,0.98131 0.343519,0.28355 0.693103,0.55944 1.023017,0.85893 0.341781,0.24828 0.726464,0.41577 1.101603,0.60515 0.498599,0.2094 1.010129,0.36427 1.539843,0.47341 0.520946,0.17836 1.044112,0.35709 1.551644,0.57112 0.493427,0.21141 1.022704,0.27635 1.552908,0.31214 0.641858,0.0279 1.284632,0.0256 1.926961,0.0239 0.649546,-0.0225 1.292505,-0.15234 1.941263,-0.2147 0.71296,-0.067 1.415789,-0.22265 2.120512,-0.34953 0.894371,-0.18605 1.764834,-0.46033 2.639194,-0.7205 0.753812,-0.17252 1.500987,-0.39418 2.205797,-0.71459 0.09971,-0.0404 0.199851,-0.0798 0.299128,-0.12119 0.266046,-0.11107 0.376335,-0.15535 0.629073,-0.29936 0.105278,-0.06 0.414441,-0.2512 0.309229,-0.19109 -2.428401,1.38723 -4.111339,2.38588 -2.640393,1.51482 0.862787,-0.50166 1.693211,-1.04859 2.496939,-1.63962 0.747511,-0.51628 1.459825,-1.06848 2.101267,-1.71196 0.634818,-0.70711 1.22064,-1.4577 1.801424,-2.20949 0.670949,-0.97164 1.375018,-1.92073 2.032556,-2.90174 0.702445,-1.13042 1.346792,-2.29475 2.014474,-3.44561 0.701233,-1.19774 1.310568,-2.4463 1.937517,-3.68381 0.718338,-1.39582 1.469361,-2.77379 2.178523,-4.17439 0.698482,-1.37014 1.362673,-2.75468 2.005727,-4.15154 0.722051,-1.59916 1.39328,-3.22114 2.053969,-4.84653 0.671959,-1.55964 1.373415,-3.10605 2.071063,-4.65429 0.601501,-1.30547 1.137031,-2.63743 1.65804,-3.97633 0.465148,-1.18172 0.974768,-2.34461 1.578481,-3.46209 0.668329,-1.23678 1.347126,-2.47025 1.938676,-3.74608 0.457398,-1.07254 0.838599,-2.17776 1.225679,-3.27759 0.386083,-1.21244 0.83852,-2.40141 1.298626,-3.58719 0.43825,-1.24487 0.867124,-2.49291 1.275267,-3.74797 0.322379,-1.04951 0.534027,-2.12797 0.841158,-3.18179 0.338813,-1.10276 0.831311,-2.14375 1.391246,-3.14888 0.650843,-1.03858 1.162981,-2.14523 1.589349,-3.29186 0.406982,-1.09604 0.753761,-2.21143 1.081839,-3.33306 0.291693,-1.16945 0.64216,-2.3202 1.101415,-3.43467 0.555914,-1.23189 1.205588,-2.41525 1.774913,-3.64126 0.538056,-1.07538 0.971195,-2.1928 1.36384,-3.32754 0.299169,-0.87103 0.653549,-1.71944 1.03111,-2.55887 0.300069,-0.62446 0.707094,-1.1879 1.04567,-1.79084 0.911695,-1.850489 -0.759571,-0.21574 3.870755,-2.329639 0.0549,0.485642 -0.0772,0.963309 -0.14856,1.440519 -0.0731,0.811 -0.16287,1.61962 -0.25121,2.42933 -0.1884,1.33436 -0.47794,2.65257 -0.72663,3.97684 -0.29284,1.67549 -0.50849,3.36317 -0.65324,5.05764 -0.11967,1.76655 -0.26331,3.53039 -0.33972,5.29962 -0.0615,1.64635 -0.0671,3.29406 -0.0714,4.94135 -0.0334,1.71443 -0.21587,3.42062 -0.48131,5.11327 -0.28921,1.78791 -0.61476,3.56953 -0.84872,5.36585 -0.240626,1.75073 -0.450917,3.50524 -0.672688,5.25835 -0.162034,1.51184 -0.356883,3.01842 -0.586669,4.52136 -0.22044,1.24452 -0.459981,2.486 -0.644686,3.73646 -0.126458,1.24841 -0.269171,2.49552 -0.373571,3.74616 -0.105402,1.28563 -0.08142,2.57649 -0.143526,3.86377 -0.06685,1.26985 -0.195148,2.53346 -0.322979,3.79811 -0.107839,1.23045 -0.265935,2.45607 -0.435028,3.67943 -0.218451,1.32863 -0.424902,2.65978 -0.599575,3.99496 -0.119809,0.95219 -0.167547,1.91104 -0.187002,2.86987 0.01289,0.3366 -0.02347,0.6778 0.01704,1.01329 -4.235053,2.07313 -3.984575,2.4862 -2.867324,0.41158 0.680564,-1.2906 1.295776,-2.61333 1.939922,-3.92211 0.798854,-1.76691 1.622026,-3.52253 2.516916,-5.24293 1.279088,-2.42377 2.93458,-4.62137 4.61351,-6.77789 1.7574,-2.16961 3.495,-4.35197 5.131287,-6.61463 1.34345,-1.87183 2.59075,-3.81261 3.72214,-5.81951 1.04397,-2.03013 2.08381,-4.06105 3.15904,-6.07506 1.13308,-2.0383 2.33227,-4.03906 3.5143,-6.04918 0.94141,-1.64603 1.87517,-3.29926 2.8997,-4.89544 0.84857,-1.3929 1.8159,-2.70549 2.76119,-4.03258 0.8696,-1.19979 1.78287,-2.36752 2.69083,-3.53841 0.86553,-1.13207 1.68733,-2.29655 2.563,-3.42084 0.71977,-0.85605 1.39104,-1.74857 2.05041,-2.65112 0.40222,-0.52342 0.82994,-1.02651 1.23443,-1.54793 0.3192,-0.43119 0.7167,-0.78738 1.10408,-1.15394 0.46643,-0.4873 0.97103,-0.9335 1.51274,-1.33477 1.37324,-0.9096 0.27485,-0.18876 3.81083,-2.22592 0.0881,-0.0508 0.36109,-0.18653 0.27333,-0.13524 -3.22165,1.88304 -4.48303,2.48658 -3.26226,1.90051 0.002,-0.0281 0.0628,-0.0242 0.0683,-0.0523 0.0444,-0.22783 0.027,-0.13245 0.1939,-0.26567 0.0598,-0.0559 0.0297,-0.0155 0.0487,-0.14316 1.17458,-0.68331 2.38518,-1.30816 3.52373,-2.04994 1.06435,-0.69345 -4.45098,2.44406 -3.30083,1.90472 0.1526,-0.0716 8.90049,-5.09046 0.23832,-0.12449 1.28137,-0.94182 2.72382,-1.64231 4.10615,-2.43962 0.1447,-0.0389 0.2899,-0.0987 0.44174,-0.10165 1.05694,0.27391 -9.28699,5.90959 0.12619,0.56465 -0.17568,0.003 -0.18154,0.10023 -0.18937,0.26261 0.0136,0.29072 -0.0144,0.56812 -0.0971,0.84719 -0.12244,0.52237 -0.3095,1.02222 -0.52799,1.511 -0.32752,0.70306 -0.6715,1.39907 -1.04024,2.0815 -0.4985,0.84004 -0.91374,1.72187 -1.32539,2.60639 -0.42416,1.02674 -0.83525,2.05909 -1.21569,3.10288 -0.36915,1.07051 -0.88494,2.07859 -1.30045,3.1302 -0.45789,1.18658 -1.0443,2.31942 -1.6053,3.45969 -0.58545,1.14504 -1.11959,2.31467 -1.66094,3.48085 -0.55125,1.1615 -1.03756,2.34941 -1.49225,3.55134 -0.45732,1.20909 -0.85125,2.44101 -1.27755,3.66128 -0.4531,1.44564 -0.86849,2.90264 -1.31608,4.35009 -0.56147,1.58726 -1.11272,3.17677 -1.62134,4.78185 -0.47842,1.55343 -1.01575,3.0877 -1.54246,4.62516 -0.47569,1.58431 -0.91848,3.17821 -1.38674,4.76484 -0.61911,1.8593 -1.22648,3.72117 -1.78679,5.59915 -0.56635,1.78571 -0.97842,3.61233 -1.23046,5.46751 -0.22424,1.4576 -0.37883,2.9185 -0.34897,4.39352 0.0527,1.19321 0.18448,2.38815 0.41999,3.55948 0.19271,1.11298 0.54882,2.17499 1.06831,3.17546 0.52079,1.01747 1.16921,1.94377 1.8583,2.85077 0.58322,0.74366 1.21914,1.45402 1.96071,2.04306 0.44006,0.29618 0.86772,0.59087 1.39153,0.70834 0.0623,0.008 0.12434,0.0271 0.18695,0.0226 0.1027,-0.007 0.25002,-0.0971 0.32878,-0.14519 0.071,-0.0433 0.2812,-0.17787 0.20867,-0.13707 -3.10908,1.74917 -4.07079,2.48025 -2.75121,1.50628 1.01986,-0.82258 1.94564,-1.74959 2.86511,-2.68038 0.85824,-0.87454 1.61166,-1.83857 2.30018,-2.84973 0.7945,-1.19173 1.67623,-2.3214 2.50383,-3.48966 0.81446,-1.11316 1.64537,-2.21254 2.4315,-3.34627 0.33409,-0.48547 0.64314,-0.98922 0.86943,-1.53407 0,0 3.57937,-1.6649 3.57937,-1.6649 v 0 c -0.204,0.59713 -0.54732,1.13166 -0.89735,1.65414 -0.79382,1.12973 -1.59554,2.252 -2.43433,3.34892 -0.81786,1.17209 -1.70936,2.29092 -2.50504,3.4787 -0.67121,1.03965 -1.40743,2.02899 -2.27158,2.91931 -0.91323,0.92245 -1.8206,1.85147 -2.80194,2.70223 -1.36331,1.19691 -0.38568,0.37439 -3.97986,2.42396 -0.28777,0.1641 -0.61125,0.12113 -0.91005,0.0278 -0.53211,-0.19977 -0.99418,-0.51766 -1.44347,-0.86249 -0.73433,-0.63754 -1.39275,-1.36219 -1.98226,-2.13496 -0.69807,-0.92616 -1.34536,-1.88001 -1.8883,-2.90761 -0.54424,-1.02824 -0.91259,-2.12684 -1.11378,-3.27467 -0.25168,-1.19228 -0.39349,-2.4109 -0.44185,-3.62818 -0.0306,-1.49981 0.10524,-2.98601 0.36028,-4.46528 0.24708,-1.87764 0.65633,-3.72864 1.23113,-5.53443 0.55842,-1.87045 1.13559,-3.73405 1.75994,-5.58368 0.45784,-1.59174 0.9176,-3.18286 1.36967,-4.77622 0.52407,-1.53746 1.06552,-3.06952 1.55149,-4.61956 0.50548,-1.60403 1.04111,-3.1967 1.61678,-4.77687 0.44564,-1.44589 0.86178,-2.90014 1.28596,-4.35237 0.43085,-1.2183 0.80714,-2.45582 1.26619,-3.66393 0.44513,-1.21373 0.93579,-2.40666 1.47998,-3.57969 0.54606,-1.16655 1.06788,-2.34471 1.659,-3.48956 0.55941,-1.1285 1.13932,-2.25252 1.60661,-3.42235 0.40202,-1.05651 0.90914,-2.0612 1.30182,-3.12155 0.38001,-1.05063 0.79219,-2.08766 1.19525,-3.12974 0.40669,-0.88658 0.79307,-1.78251 1.29597,-2.62012 0.3638,-0.67191 0.70816,-1.35369 1.03287,-2.04503 0.20873,-0.47014 0.43881,-0.9334 0.52406,-1.44447 0.0666,-0.25619 0.18387,-0.47393 0.12926,-0.74731 -0.005,-0.20216 -0.0362,-0.42982 0.0287,-0.61927 4.93433,-2.81928 4.27801,-2.63971 0.39172,0.34222 -0.006,0.004 0.0492,0.0512 0.0111,0.0616 -0.12094,0.0543 -0.24729,0.098 -0.35907,0.17109 6.44543,-3.74941 3.74911,-2.35847 2.70587,-1.50613 -10.04011,5.83049 0.36227,-0.21467 -0.22775,0.14429 -1.1559,0.70321 -2.31033,1.41341 -3.51269,2.03386 -1.12874,0.58247 2.20798,-1.25709 3.29159,-1.91977 0.0296,-0.0181 -0.16298,-0.0979 -0.10258,0.018 -0.18811,0.43391 -0.20869,0.002 -0.25957,0.33146 -0.0123,0.0342 -0.006,0.0835 -0.0369,0.10256 -0.10739,0.0663 -8.93991,5.23543 -0.53381,0.35689 0.0821,-0.0477 -0.16485,0.0943 -0.24728,0.14146 -0.56614,0.34885 -1.06015,0.78611 -1.5345,1.25049 -0.34366,0.40476 -0.78645,0.70815 -1.12486,1.11891 -0.40442,0.53172 -0.8283,1.04833 -1.26288,1.55356 -0.68572,0.90569 -1.34818,1.82918 -2.09912,2.68379 -0.88735,1.11368 -1.70631,2.27816 -2.55985,3.41754 -0.91711,1.16811 -1.82843,2.34151 -2.71731,3.53115 -0.94302,1.32849 -1.9266,2.62997 -2.7755,4.02272 -1.05955,1.58665 -1.99866,3.25159 -2.95595,4.901 -1.18985,2.00651 -2.38921,4.00813 -3.53476,6.0403 -1.07131,2.01191 -2.11672,4.03541 -3.13753,6.07332 -1.12302,2.03382 -2.38999,3.98691 -3.74171,5.87611 -1.64215,2.27651 -3.39064,4.46836 -5.163917,6.64402 -1.66492,2.12275 -3.30329,4.29252 -4.56842,6.68326 -0.88933,1.70338 -1.696974,3.4482 -2.465412,5.20931 -0.633849,1.29869 -1.249883,2.60484 -1.878168,3.90622 -1.13646,2.218 -0.228807,1.12086 -4.258514,3.01596 0.02066,-0.35273 0.01455,-0.70635 0.03195,-1.05928 0.03365,-0.98057 0.106987,-1.9592 0.224398,-2.9335 0.175236,-1.33453 0.37963,-2.66571 0.592593,-3.99461 0.168791,-1.2192 0.330681,-2.44014 0.439896,-3.6663 0.129561,-1.26019 0.268671,-2.51848 0.333878,-3.78434 0.08592,-1.28844 0.03741,-2.58237 0.139348,-3.87069 0.09195,-1.25859 0.252047,-2.51059 0.363405,-3.76744 0.165904,-1.25753 0.409845,-2.5036 0.653965,-3.74797 0.239935,-1.50396 0.456928,-3.01042 0.617324,-4.52532 0.23341,-1.75367 0.442796,-3.51044 0.683241,-5.26328 0.230352,-1.79944 0.548309,-3.58513 0.841121,-5.37514 0.27395,-1.67159 0.447691,-3.35809 0.493183,-5.05224 0.005,-1.65379 0.01175,-3.308 0.07525,-4.9608 0.07781,-1.77392 0.218842,-3.54281 0.337251,-5.31411 0.128284,-1.7031 0.34434,-3.39795 0.617747,-5.08377 0.235955,-1.30653 0.488259,-2.61133 0.690023,-3.92299 0.07271,-0.80852 0.1646,-1.61335 0.206811,-2.42419 0.05628,-0.44097 0.16639,-0.8779 0.16246,-1.32057 3.90667,-2.005999 4.02019,-2.999901 3.26492,-1.14696 -0.33581,0.60788 -0.72605,1.17993 -1.08042,1.77646 -0.40325,0.82515 -0.7557,1.6739 -1.07252,2.53581 -0.41429,1.14142 -0.80743,2.29053 -1.371153,3.37092 -0.566957,1.22471 -1.192051,2.41421 -1.779381,3.62824 -0.471421,1.09386 -0.82722,2.22822 -1.102984,3.3872 -0.334352,1.12809 -0.665854,2.25649 -1.081136,3.35848 -0.40854,1.16695 -0.895461,2.30374 -1.560573,3.35038 -0.560459,0.97888 -1.065948,1.98528 -1.41166,3.06321 -0.327925,1.05573 -0.546045,2.14002 -0.857684,3.20027 -0.417097,1.2594 -0.844741,2.51482 -1.275668,3.76966 -0.450381,1.17994 -0.915204,2.35598 -1.283409,3.56506 -0.377499,1.11566 -0.787487,2.22435 -1.22423,3.31744 -0.577019,1.29238 -1.283133,2.52204 -1.936855,3.77649 -0.608822,1.09982 -1.113396,2.24816 -1.586773,3.41247 -0.536681,1.3482 -1.074795,2.69402 -1.686136,4.01097 -0.705469,1.54335 -1.39531,3.0932 -2.083322,4.64438 -0.671374,1.62207 -1.332097,3.24915 -2.037376,4.85658 -0.642477,1.39801 -1.280432,2.79561 -1.990346,4.16112 -0.712547,1.39644 -1.453105,2.77744 -2.174021,4.16945 -0.614428,1.24689 -1.232233,2.49548 -1.920766,3.70317 -0.669724,1.14826 -1.314384,2.30993 -1.98619,3.45692 -0.645303,0.9945 -1.37051,1.93093 -2.018459,2.9234 -0.565153,0.7604 -1.156118,1.50008 -1.748319,2.23946 -0.637601,0.67047 -1.322118,1.27715 -2.103469,1.77961 -0.794491,0.60128 -1.604338,1.17031 -2.465941,1.67226 -1.751909,1.03626 -3.448904,2.20018 -5.349843,2.94472 -0.724008,0.27016 -1.465553,0.48117 -2.214597,0.67056 -0.879382,0.2624 -1.763088,0.51225 -2.66455,0.68851 -0.714541,0.1395 -1.431848,0.27864 -2.158349,0.33776 -0.652753,0.0735 -1.303065,0.20123 -1.962457,0.17952 -0.653343,-0.002 -1.307795,0.005 -1.95971,-0.0451 -0.555588,-0.0645 -1.100624,-0.17954 -1.61543,-0.40609 -0.501517,-0.18561 -0.997188,-0.39205 -1.517015,-0.52216 -0.545954,-0.13812 -1.086328,-0.30378 -1.598175,-0.54148 -0.410491,-0.19004 -0.809271,-0.41334 -1.163979,-0.69557 -0.33931,-0.29643 -0.689756,-0.57942 -1.02807,-0.87686 -0.348383,-0.33318 -0.711695,-0.65104 -1.050989,-0.99331 -0.309327,-0.33119 -0.617641,-0.66351 -0.934469,-0.98748 -0.297243,-0.29412 -0.535731,-0.63584 -0.799782,-0.95917 -0.219898,-0.33042 -0.440563,-0.65919 -0.673293,-0.98101 -0.237879,-0.32273 -0.44169,-0.66864 -0.666068,-1.00101 -0.205737,-0.41298 -0.404018,-0.83046 -0.577122,-1.25777 -0.15317,-0.42697 -0.290539,-0.85958 -0.450808,-1.28336 -0.136083,-0.39643 -0.251282,-0.79608 -0.363934,-1.20024 -0.05477,-0.4599 -0.156049,-0.91138 -0.239885,-1.36652 -0.0199,-0.43619 -0.04476,-0.87559 -0.16211,-1.29861 -0.102526,-0.37661 -0.118332,-0.74405 -0.09814,-1.13431 5.3e-4,-0.4379 0.0052,-0.87579 0.0035,-1.31369 -0.0024,-0.42748 -0.0075,-0.85499 -0.0044,-1.28248 0.01193,-0.3719 0.05183,-0.74348 0.137689,-1.10608 0.09315,-0.43724 0.223319,-0.86097 0.270388,-1.30789 0.104871,-0.44556 0.256244,-0.87494 0.319461,-1.33078 0.135437,-0.44375 0.252039,-0.89867 0.467542,-1.31232 0.3345,-0.52646 0.623922,-1.08445 1.043845,-1.55231 0.425252,-0.55826 0.82491,-1.13496 1.247373,-1.69534 0.42455,-0.61341 0.895784,-1.19896 1.409568,-1.73983 0.613986,-0.62405 1.302242,-1.181 1.95208,-1.76608 0.661857,-0.5864 1.35795,-1.12425 2.053285,-1.66895 1.769245,-1.41837 3.367228,-2.38622 5.526784,-3.47891 0.652497,-0.35209 0.0037,-0.006 0.669829,-0.34966 0.115237,-0.0595 0.456071,-0.24691 0.344149,-0.18141 -0.999331,0.58484 -2.00474,1.15925 -3.006672,1.73963 -0.114107,0.0661 0.228796,-0.13119 0.343194,-0.19678 1.239766,-0.71556 2.479529,-1.43112 3.719295,-2.14668 0.70851,-0.34679 1.440085,-0.66211 2.208107,-0.851 0.810644,-0.19016 1.630278,-0.34129 2.445626,-0.50922 0.823224,-0.11457 1.664726,-0.19844 2.48753,-0.0318 0.660366,0.12264 1.334937,0.1817 1.970664,0.41386 0.698278,0.23637 1.403096,0.46047 2.082232,0.74783 0.648747,0.31272 1.286129,0.64273 1.874956,1.06113 0.504045,0.37002 0.922994,0.82739 1.359686,1.27218 0.488135,0.51062 0.889349,1.09212 1.292437,1.67063 0.352208,0.59768 0.616005,1.2367 0.84733,1.88986 0.249182,0.70684 0.385599,1.44078 0.528802,2.17506 0.09171,0.80267 0.179366,1.60091 0.09926,2.41014 -0.05792,0.86133 -0.136385,1.72371 -0.394624,2.5526 -0.237643,0.76377 -0.389551,1.56075 -0.7416,2.28453 -0.263039,0.66353 -0.579938,1.29773 -0.93947,1.91419 -0.452583,0.70981 -0.926949,1.40175 -1.519872,2.00549 -0.647758,0.70359 -1.393063,1.28706 -2.192488,1.81083 -1.888546,1.10003 -3.787011,2.45648 -5.920725,3.09989 -0.923379,0.23997 -1.855208,0.44673 -2.793902,0.61779 -0.765151,0.14483 -1.533355,0.25114 -2.31272,0.15146 -0.624086,-0.0582 -1.237554,-0.16676 -1.842484,-0.33265 -0.534659,-0.12525 -1.048041,-0.31355 -1.510258,-0.61639 -0.338436,-0.21452 -0.68789,-0.41817 -0.956516,-0.72143 -0.248788,-0.29184 -0.431263,-0.61712 -0.55335,-0.98137 -0.129309,-0.33829 -0.243424,-0.72342 -0.236984,-1.08424 0.02931,-0.38186 0.08558,-0.75974 0.198146,-1.12676 0.109845,-0.32841 0.04336,-0.69512 0.140708,-1.03113 0.08377,-0.33325 0.252122,-0.6243 0.346845,-0.95263 0.02267,-0.0418 0.04533,-0.0835 0.068,-0.1253 0.02923,-0.0277 0.06699,-0.0486 0.08768,-0.0832 0.125854,-0.21038 0.144653,-0.49124 0.342762,-0.66686 0.297765,-0.31768 0.533982,-0.69806 0.822383,-1.02779 0.0747,-0.0547 0.164648,-0.0882 0.234043,-0.14946 0.16352,-0.14435 0.26802,-0.35468 0.470609,-0.46265 1.639993,-0.95724 3.223969,-1.96887 4.93917,-2.77037 0,0 -3.09662,2.477 -3.09662,2.477 z"
       inkscape:connector-curvature="0" />
  </g>
  <g
     inkscape:groupmode="layer"
     id="layer4"
     inkscape:label="Layer 4">
    <text
       xml:space="preserve"
       style="font-style:normal;font-weight:normal;font-size:29.82691956px;line-height:1.25;font-family:sans-serif;letter-spacing:0px;word-spacing:0px;fill:#ffffff;fill-opacity:1;stroke:none;stroke-width:0.745673"
       x="19.437744"
       y="137.09312"
       id="text6573"
       transform="matrix(0.86185731,0.0059781,0.03889763,1.1605547,0,0)"><tspan
         sodipodi:role="line"
         id="tspan6571"
         x="19.437744"
         y="137.09312"
         style="fill:#ffffff;stroke-width:0.745673">MALDESTOR</tspan></text>
  </g>
</svg>
