<?xml version="1.0" encoding="UTF-8" standalone="no"?>
<!-- Created with Inkscape (http://www.inkscape.org/) -->

<svg
   xmlns:dc="http://purl.org/dc/elements/1.1/"
   xmlns:cc="http://creativecommons.org/ns#"
   xmlns:rdf="http://www.w3.org/1999/02/22-rdf-syntax-ns#"
   xmlns:svg="http://www.w3.org/2000/svg"
   xmlns="http://www.w3.org/2000/svg"
   xmlns:sodipodi="http://sodipodi.sourceforge.net/DTD/sodipodi-0.dtd"
   xmlns:inkscape="http://www.inkscape.org/namespaces/inkscape"
   width="64"
   height="64"
   viewBox="0 0 16.933333 16.933334"
   version="1.1"
   id="svg8"
   sodipodi:docname="COG.svg"
   inkscape:version="0.92.4 (5da689c313, 2019-01-14)">
  <defs
     id="defs2">
    <inkscape:path-effect
       effect="bspline"
       id="path-effect3814"
       is_visible="true"
       weight="33.333333"
       steps="2"
       helper_size="0"
       apply_no_weight="true"
       apply_with_weight="true"
       only_selected="false" />
    <inkscape:path-effect
       effect="simplify"
       id="path-effect3812"
       is_visible="true"
       steps="1"
       threshold="0.00113885"
       smooth_angles="360"
       helper_size="0"
       simplify_individual_paths="false"
       simplify_just_coalesce="false"
       simplifyindividualpaths="false"
       simplifyJustCoalesce="false" />
    <inkscape:path-effect
       effect="bspline"
       id="path-effect3796"
       is_visible="true"
       weight="33.333333"
       steps="2"
       helper_size="0"
       apply_no_weight="true"
       apply_with_weight="true"
       only_selected="false" />
    <inkscape:path-effect
       effect="simplify"
       id="path-effect3794"
       is_visible="true"
       steps="1"
       threshold="0.00113885"
       smooth_angles="360"
       helper_size="0"
       simplify_individual_paths="false"
       simplify_just_coalesce="false"
       simplifyindividualpaths="false"
       simplifyJustCoalesce="false" />
  </defs>
  <sodipodi:namedview
     id="base"
     pagecolor="#ffffff"
     bordercolor="#666666"
     borderopacity="1.0"
     inkscape:pageopacity="0.0"
     inkscape:pageshadow="2"
     inkscape:zoom="3.3565475"
     inkscape:cx="93.025701"
     inkscape:cy="1.3745369"
     inkscape:document-units="mm"
     inkscape:current-layer="layer1"
     showgrid="false"
     inkscape:window-width="1920"
     inkscape:window-height="1017"
     inkscape:window-x="-8"
     inkscape:window-y="-8"
     inkscape:window-maximized="1"
     units="px" />
  <metadata
     id="metadata5">
    <rdf:RDF>
      <cc:Work
         rdf:about="">
        <dc:format>image/svg+xml</dc:format>
        <dc:type
           rdf:resource="http://purl.org/dc/dcmitype/StillImage" />
        <dc:title></dc:title>
      </cc:Work>
    </rdf:RDF>
  </metadata>
  <g
     inkscape:label="Calque 1"
     inkscape:groupmode="layer"
     id="layer1"
     transform="translate(0,-280.06665)">
    <g
       id="g3853">
      <path
         inkscape:connector-curvature="0"
         id="path3769"
         d="m 8.46615,290.73953 c -0.1025148,-0.053 -0.1641584,-0.16121 -0.1641584,-0.28827 v -0.1084 l -0.4298207,-0.25457 c -0.3653643,-0.2164 -0.4338161,-0.24886 -0.4564596,-0.21649 -0.047777,0.0683 -0.1884962,0.10272 -0.2828332,0.0692 -0.1321568,-0.0469 -0.1879585,-0.13594 -0.199015,-0.3173 -0.00884,-0.14587 -0.00524,-0.15978 0.06578,-0.25175 0.1813065,-0.23471 0.498033,-0.10092 0.5123209,0.21645 l 0.00442,0.0985 0.4110471,0.24732 0.4110451,0.24732 0.091874,-0.0503 0.091863,-0.0503 5.315e-4,-0.51838 5.305e-4,-0.51838 -0.07601,-0.0376 c -0.090403,-0.0448 -0.1453692,-0.15769 -0.1453692,-0.29857 v -0.10174 l -0.4323623,-0.28372 c -0.4275425,-0.28055 -0.4328764,-0.28316 -0.478295,-0.2344 -0.034144,0.0366 -0.079875,0.0493 -0.1781378,0.0493 -0.125145,0 -0.1363865,-0.005 -0.2104766,-0.10133 -0.074467,-0.0964 -0.077809,-0.10883 -0.068854,-0.25571 0.011052,-0.18136 0.066859,-0.27033 0.199016,-0.31731 0.094341,-0.0336 0.2350591,7.7e-4 0.2828332,0.0692 0.022639,0.0324 0.091092,-1e-4 0.4564586,-0.2165 l 0.4298207,-0.25458 v -0.11005 c 0,-0.30273 0.3482449,-0.43049 0.5186152,-0.19026 0.045926,0.0648 0.056979,0.10804 0.056979,0.22315 0,0.12601 -0.00894,0.15439 -0.075783,0.24094 -0.071301,0.0924 -0.083597,0.0981 -0.2079895,0.0981 -0.094845,0 -0.1443031,-0.013 -0.1750144,-0.0459 -0.023544,-0.0253 -0.056969,-0.0454 -0.074272,-0.0448 -0.017303,7.8e-4 -0.210783,0.10998 -0.4299503,0.24295 l -0.3984875,0.24176 v 0.0911 c 0,0.091 3.29e-4,0.0913 0.4214775,0.36913 l 0.4214764,0.27802 0.065564,-0.0472 c 0.084882,-0.0611 0.2454854,-0.0611 0.3303688,0 l 0.065564,0.0472 0.4214775,-0.27811 c 0.3134982,-0.20687 0.4222908,-0.29134 0.4246585,-0.32973 0.00175,-0.0284 0.00422,-0.0832 0.00555,-0.12183 0.00596,-0.17641 0.2115049,-0.32062 0.374494,-0.26269 0.132156,0.0469 0.187958,0.13595 0.199015,0.31731 0.0089,0.14688 0.0057,0.15931 -0.06885,0.25571 -0.07409,0.0959 -0.08533,0.10133 -0.2104771,0.10133 -0.09827,0 -0.143997,-0.0127 -0.178136,-0.0493 -0.04542,-0.0488 -0.05076,-0.0461 -0.478296,0.2344 l -0.4323623,0.28372 v 0.10174 c 0,0.14088 -0.054964,0.25375 -0.1453693,0.29857 l -0.07601,0.0377 5.305e-4,0.51838 5.306e-4,0.51838 0.091863,0.0503 0.091863,0.0503 0.4110461,-0.24732 0.4110471,-0.24732 0.00442,-0.0985 c 0.00977,-0.21692 0.1487383,-0.35236 0.3358624,-0.32734 0.08087,0.0108 0.116404,0.0332 0.17646,0.11089 0.07104,0.0919 0.07467,0.10588 0.06578,0.25175 -0.01106,0.18136 -0.06686,0.27033 -0.199015,0.3173 -0.09434,0.0336 -0.2350581,-7.8e-4 -0.2828351,-0.0692 -0.02264,-0.0324 -0.091092,10e-5 -0.4564584,0.21649 l -0.4298208,0.25457 v 0.1084 c 0,0.23705 -0.2166813,0.38887 -0.4114327,0.28827 z m 0.2398636,-0.20425 c 0.057914,-0.0795 0.04935,-0.1912 -0.019586,-0.25555 -0.032078,-0.0299 -0.075568,-0.0544 -0.096634,-0.0544 -0.063631,0 -0.1549679,0.10277 -0.1549679,0.17435 0,0.19368 0.1677445,0.27757 0.2711938,0.13563 z m -1.3725671,-0.80306 c 0.060351,-0.0629 0.050152,-0.20161 -0.019586,-0.2667 -0.032078,-0.0299 -0.075568,-0.0544 -0.096634,-0.0544 -0.063631,0 -0.1549668,0.10276 -0.1549668,0.17435 0,0.1879 0.1524972,0.27044 0.2711927,0.14678 z m 2.7451305,-0.0111 c 0.05791,-0.0795 0.04935,-0.19122 -0.01959,-0.25555 -0.03208,-0.0299 -0.07557,-0.0545 -0.09663,-0.0545 -0.07334,0 -0.154967,0.10263 -0.154967,0.19482 0,0.17705 0.172654,0.25036 0.2711911,0.11517 z m -1.3780979,-0.88781 c 0.024603,-0.0292 0.044271,-0.0876 0.044271,-0.13133 0,-0.0438 -0.019678,-0.10215 -0.044271,-0.13133 -0.024603,-0.0292 -0.073789,-0.0525 -0.1106915,-0.0525 -0.0369,0 -0.086095,0.0234 -0.1106904,0.0525 -0.024593,0.0292 -0.044271,0.0876 -0.044271,0.13133 0,0.0438 0.019678,0.10214 0.044271,0.13133 0.024603,0.0292 0.073789,0.0525 0.1106904,0.0525 0.0369,0 0.086096,-0.0234 0.1106915,-0.0525 z m -1.3866215,-0.89494 c 0.1180138,-0.11014 0.051972,-0.32203 -0.1003763,-0.32203 -0.1417646,0 -0.2045956,0.21779 -0.092902,0.32203 0.032078,0.0299 0.075568,0.0545 0.096634,0.0545 0.021066,0 0.064556,-0.0245 0.096634,-0.0545 z m 2.7451304,0 c 0.111694,-0.10424 0.04887,-0.32203 -0.0929,-0.32203 -0.152342,0 -0.218386,0.21189 -0.100377,0.32203 0.03208,0.0299 0.07557,0.0545 0.09663,0.0545 0.02107,0 0.06456,-0.0245 0.09663,-0.0545 z m -1.3725644,-0.81422 c 0.1116939,-0.10424 0.048867,-0.32203 -0.092902,-0.32203 -0.152342,0 -0.218387,0.2119 -0.1003762,0.32203 0.032078,0.0299 0.075568,0.0545 0.096634,0.0545 0.021066,0 0.064556,-0.0245 0.096634,-0.0545 z"
         style="stroke-width:0.02411345" />
      <path
         sodipodi:nodetypes="cccccccccc"
         inkscape:connector-curvature="0"
         id="path3756-5"
         d="m 8.3983099,284.72178 c -2.176926,-0.0403 -4.2791657,2.26746 -3.7740447,4.70379 0.460131,2.48196 3.1382855,3.82283 5.2407067,3.0659 1.6796811,-0.50162 3.0219941,-2.34178 2.7521311,-4.29086 -0.242979,-2.1554 -2.298772,-3.66195 -4.2187931,-3.47883 z m 0.2298475,0.32096 c 2.3131776,-0.0223 3.8699906,1.91557 3.7034326,3.92977 -0.129596,2.02192 -2.031776,3.67191 -4.0356499,3.39573 -1.709522,-0.15866 -3.6578373,-1.6024 -3.4272701,-4.25242 0.425918,-2.1449 2.2274185,-3.09334 3.7594874,-3.07308 z"
         style="stroke-width:0.0386444" />
      <path
         inkscape:connector-curvature="0"
         id="path3756-2"
         d="m 8.0808472,280.84382 c -0.6488267,-0.15282 -0.9275104,0.6026 -0.9346343,1.15197 0.061523,0.63803 -0.2574487,0.9188 -0.7801805,1.03803 -0.503004,0.52452 -0.9151574,0.0492 -1.3476729,-0.31247 -0.4145901,-0.49969 -1.0413469,-0.23774 -1.3473388,0.24136 -0.3658855,0.43921 -1.1635462,0.99647 -0.71686,1.67672 0.21053,0.47726 0.8730719,0.92202 0.5048608,1.49283 -0.2213974,0.41279 -0.1661056,1.11973 -0.768906,1.0105 -0.5160819,0.0706 -1.3504089,0.16476 -1.285619,0.94765 0.068673,0.71426 -0.3077632,1.97596 0.6492583,2.10743 0.4497387,0.14724 1.1704749,0.002 1.2617234,0.68126 0.1092449,0.45609 0.5956981,0.90501 0.097539,1.28465 -0.3666494,0.44343 -0.8492029,1.2298 -0.2488114,1.71056 0.4680446,0.43082 0.9796849,1.48721 1.7002935,0.99013 0.4311008,-0.19773 0.8368407,-0.95239 1.3487905,-0.57014 0.3805785,0.23011 1.0190355,0.2098 0.920479,0.85705 0.062983,0.56265 0.141048,1.46901 0.8556688,1.40508 0.6151812,-0.0895 1.6329387,0.3301 1.8960693,-0.53441 0.2321111,-0.52105 -0.05706,-1.45689 0.6428411,-1.53027 0.421168,-0.11381 0.844537,-0.65476 1.197095,-0.1124 0.401787,0.33962 1.009491,0.92593 1.486364,0.36811 0.392479,-0.53894 1.260411,-0.96427 1.085236,-1.77404 -0.17833,-0.49565 -0.735797,-0.90332 -0.718784,-1.39738 0.321197,-0.45017 0.218847,-1.37261 0.910254,-1.28556 0.567493,-0.0599 1.436299,-0.22521 1.28525,-1.07196 -0.08086,-0.63611 0.281153,-1.64751 -0.462717,-1.93687 -0.482104,-0.24844 -1.351127,0.0696 -1.4196,-0.70092 -0.09591,-0.45147 -0.594442,-0.93718 -0.09665,-1.32038 0.374875,-0.44659 0.85187,-1.26213 0.223295,-1.72798 -0.462007,-0.41653 -0.914316,-1.40802 -1.625181,-1.01324 -0.397733,0.19731 -0.740582,0.75633 -1.145777,0.73063 -0.390874,-0.3397 -1.220007,-0.24697 -1.219668,-0.95429 -0.07872,-0.60016 -0.1758301,-1.58041 -0.9409467,-1.45086 -0.3352092,-0.003 -0.6704534,-0.002 -1.0056718,-7.8e-4 z m 0.6948242,0.39841 c 0.3392302,-0.0586 0.803813,0.0174 0.780822,0.5016 0.1276916,0.41773 0.02667,0.98949 0.2793845,1.33188 0.5379021,0.18765 1.0649561,0.47611 1.5798291,0.67611 0.48956,-0.22013 0.865003,-0.87186 1.393073,-0.89486 0.435749,0.34843 0.805249,0.80003 1.161819,1.24227 -0.101641,0.61589 -0.708091,1.01299 -0.851204,1.60373 0.267889,0.52771 0.42151,1.14898 0.659103,1.66595 0.509635,0.20968 1.132294,0.10728 1.58924,0.44498 0.03503,0.59388 0.156464,1.27406 -0.05776,1.83206 -0.483533,0.27011 -1.107585,0.15652 -1.577477,0.42836 -0.150273,0.58486 -0.458244,1.1472 -0.610962,1.70526 0.262026,0.5124 0.631841,0.95067 0.884145,1.46897 -0.36307,0.51812 -0.834249,0.93426 -1.239688,1.41142 -0.501971,-0.28891 -0.927909,-0.84569 -1.461102,-1.00154 -0.474221,0.30675 -1.039686,0.43849 -1.5073071,0.72899 -0.1969878,0.53243 -0.05786,1.28947 -0.429345,1.72374 -0.5332351,0.0663 -1.1238769,0.14008 -1.6369453,-0.0492 -0.2650754,-0.5289 -0.1215352,-1.26121 -0.4210025,-1.74456 -0.5161538,-0.16222 -1.0119733,-0.51193 -1.5147953,-0.63214 -0.4910377,0.22433 -0.8720675,0.8776 -1.3999173,0.88481 -0.4427546,-0.36828 -0.8466398,-0.81642 -1.1879191,-1.29726 0.2151412,-0.54481 0.7091337,-0.96537 0.8730226,-1.51062 -0.2565213,-0.55548 -0.4057574,-1.20228 -0.695038,-1.72116 -0.4862867,-0.19863 -1.1438412,-0.0418 -1.5428201,-0.41854 -0.1214365,-0.60861 -0.00997,-1.25511 -0.050491,-1.8751 0.5352287,-0.18391 1.1909068,-0.10533 1.6681788,-0.40825 0.1178977,-0.59746 0.4716009,-1.13656 0.5795205,-1.71578 -0.2151,-0.51917 -0.7838642,-0.94108 -0.8118407,-1.51343 0.3473103,-0.45495 0.7148532,-0.98978 1.2088837,-1.2521 0.5211392,0.15175 0.8723009,0.79663 1.4039825,0.89977 0.4807214,-0.31446 1.0934957,-0.42131 1.5349035,-0.76805 0.1831191,-0.52548 0.045855,-1.26611 0.404316,-1.6842 0.3207701,-0.0855 0.6673248,-0.0452 0.9953875,-0.0632 z"
         style="stroke-width:0.03030564" />
    </g>
  </g>
</svg>
