<?xml version="1.0" encoding="UTF-8" standalone="no"?>
<!-- Created with Inkscape (http://www.inkscape.org/) -->

<svg
   xmlns:dc="http://purl.org/dc/elements/1.1/"
   xmlns:cc="http://creativecommons.org/ns#"
   xmlns:rdf="http://www.w3.org/1999/02/22-rdf-syntax-ns#"
   xmlns:svg="http://www.w3.org/2000/svg"
   xmlns="http://www.w3.org/2000/svg"
   xmlns:xlink="http://www.w3.org/1999/xlink"
   xmlns:sodipodi="http://sodipodi.sourceforge.net/DTD/sodipodi-0.dtd"
   xmlns:inkscape="http://www.inkscape.org/namespaces/inkscape"
   width="128"
   height="128"
   viewBox="0 0 33.866666 33.866668"
   version="1.1"
   id="svg8"
   sodipodi:docname="logoMaldestor.svg"
   inkscape:version="0.92.4 (5da689c313, 2019-01-14)">
  <defs
     id="defs2">
    <inkscape:path-effect
       effect="bspline"
       id="path-effect2004"
       is_visible="true"
       weight="33.333333"
       steps="2"
       helper_size="0"
       apply_no_weight="true"
       apply_with_weight="true"
       only_selected="false" />
    <inkscape:path-effect
       effect="simplify"
       id="path-effect2002"
       is_visible="true"
       steps="1"
       threshold="0.00611739"
       smooth_angles="360"
       helper_size="0"
       simplify_individual_paths="false"
       simplify_just_coalesce="false"
       simplifyindividualpaths="false"
       simplifyJustCoalesce="false" />
    <inkscape:path-effect
       effect="bspline"
       id="path-effect1916"
       is_visible="true"
       weight="33.333333"
       steps="2"
       helper_size="0"
       apply_no_weight="true"
       apply_with_weight="true"
       only_selected="false" />
    <inkscape:path-effect
       effect="simplify"
       id="path-effect1914"
       is_visible="true"
       steps="1"
       threshold="0.00611739"
       smooth_angles="360"
       helper_size="0"
       simplify_individual_paths="false"
       simplify_just_coalesce="false"
       simplifyindividualpaths="false"
       simplifyJustCoalesce="false" />
    <inkscape:path-effect
       effect="bspline"
       id="path-effect1898"
       is_visible="true"
       weight="33.333333"
       steps="2"
       helper_size="0"
       apply_no_weight="true"
       apply_with_weight="true"
       only_selected="false" />
    <inkscape:path-effect
       effect="simplify"
       id="path-effect1896"
       is_visible="true"
       steps="1"
       threshold="0.0001"
       smooth_angles="360"
       helper_size="0"
       simplify_individual_paths="false"
       simplify_just_coalesce="false"
       simplifyindividualpaths="false"
       simplifyJustCoalesce="false" />
    <inkscape:path-effect
       effect="simplify"
       id="path-effect2002-5"
       is_visible="true"
       steps="1"
       threshold="0.00611739"
       smooth_angles="360"
       helper_size="0"
       simplify_individual_paths="false"
       simplify_just_coalesce="false"
       simplifyindividualpaths="false"
       simplifyJustCoalesce="false" />
    <inkscape:path-effect
       effect="bspline"
       id="path-effect2004-9"
       is_visible="true"
       weight="33.333333"
       steps="2"
       helper_size="0"
       apply_no_weight="true"
       apply_with_weight="true"
       only_selected="false" />
  </defs>
  <sodipodi:namedview
     id="base"
     pagecolor="#ffffff"
     bordercolor="#666666"
     borderopacity="1.0"
     inkscape:pageopacity="0.0"
     inkscape:pageshadow="2"
     inkscape:zoom="1.1867187"
     inkscape:cx="-77.932672"
     inkscape:cy="180.67878"
     inkscape:document-units="mm"
     inkscape:current-layer="layer1"
     showgrid="false"
     inkscape:window-width="1920"
     inkscape:window-height="1017"
     inkscape:window-x="-8"
     inkscape:window-y="-8"
     inkscape:window-maximized="1"
     units="px" />
  <metadata
     id="metadata5">
    <rdf:RDF>
      <cc:Work
         rdf:about="">
        <dc:format>image/svg+xml</dc:format>
        <dc:type
           rdf:resource="http://purl.org/dc/dcmitype/StillImage" />
        <dc:title></dc:title>
      </cc:Work>
    </rdf:RDF>
  </metadata>
  <g
     inkscape:label="Calque 1"
     inkscape:groupmode="layer"
     id="layer1"
     transform="translate(0,-263.13332)">
    <g
       id="g2653"
       transform="matrix(0.4070976,0,0,0.39215921,-10.141836,223.54832)">
      <path
         id="path1969"
         d="m 35.747607,163.4687 c -1.316685,0.46689 -2.636017,0.93644 -3.957994,1.40863 a 40.466094,40.466094 0 0 1 -4.790088,-18.27772 40.466094,40.466094 0 0 1 39.621203,-41.2937 40.466094,40.466094 0 0 1 41.293702,39.6212 40.466094,40.466094 0 0 1 -4.335,19.0756 c -1.15414,-0.54851 -2.31093,-1.09437 -3.47036,-1.63758"
         style="opacity:1;fill:none;fill-opacity:1;fill-rule:evenodd;stroke:none;stroke-width:0.76499999;stroke-linecap:butt;stroke-linejoin:bevel;stroke-miterlimit:4;stroke-dasharray:none;stroke-dashoffset:0;stroke-opacity:1;paint-order:fill markers stroke"
         inkscape:connector-curvature="0" />
      <path
         sodipodi:nodetypes="cccc"
         inkscape:connector-curvature="0"
         id="path1967"
         d="m 31.484108,136.26541 c 6.747172,13.36257 20.320002,21.90877 35.286197,22.21812 v 0 c 15.212938,0.31445 29.868105,-8.40469 37.055395,-21.81645"
         style="opacity:1;fill:none;fill-opacity:1;fill-rule:evenodd;stroke:#000000;stroke-width:0.76499999;stroke-linecap:butt;stroke-linejoin:bevel;stroke-miterlimit:4;stroke-dasharray:none;stroke-dashoffset:0;stroke-opacity:1;paint-order:fill markers stroke" />
      <path
         inkscape:connector-curvature="0"
         id="path1892"
         d="M 68.20936,181.44789 A 36.26549,37.157308 88.815873 0 1 30.310542,145.95802 36.26549,37.157308 88.815873 0 1 66.710475,108.9324 36.26549,37.157308 88.815873 0 1 104.6093,144.42227 36.26549,37.157308 88.815873 0 1 68.20936,181.44789 Z"
         style="opacity:1;fill:none;fill-opacity:1;fill-rule:evenodd;stroke:#000000;stroke-width:8;stroke-linecap:butt;stroke-linejoin:bevel;stroke-miterlimit:4;stroke-dasharray:none;stroke-dashoffset:0;stroke-opacity:1;paint-order:fill markers stroke" />
      <text
         transform="translate(0.47295621,-4.0989539)"
         y="-4.414258"
         id="text1963"
         style="font-style:normal;font-variant:normal;font-weight:normal;font-stretch:extra-condensed;font-size:10.58333302px;line-height:1.25;font-family:Algerian;-inkscape-font-specification:'Algerian, Extra-Condensed';font-variant-ligatures:normal;font-variant-caps:normal;font-variant-numeric:normal;text-align:start;letter-spacing:0px;word-spacing:0px;writing-mode:lr-tb;text-anchor:start;fill:#000000;fill-opacity:1;stroke:none;stroke-width:0.26458332"
         xml:space="preserve"><textPath
           style="font-style:normal;font-variant:normal;font-weight:normal;font-stretch:normal;font-size:12.69999981px;line-height:10.25;font-family:Algerian;-inkscape-font-specification:Algerian"
           id="textPath1974"
           xlink:href="#path1967">   Maldestor</textPath></text>
      <path
         transform="scale(0.26458333)"
         inkscape:connector-curvature="0"
         id="path1979"
         d="m 239.90184,682.40819 c -31.40221,-3.66449 -60.48314,-17.68192 -82.75667,-39.8899 -19.61197,-19.55425 -32.33457,-43.453 -37.43429,-70.3184 -1.61884,-8.52808 -2.63415,-22.28499 -2.17679,-29.4946 0.49111,-7.74178 2.02769,-19.34884 2.71744,-20.52711 0.29734,-0.50793 0.54876,-0.63601 0.55873,-0.28464 0.032,1.12691 9.53354,15.25989 14.19201,21.10968 5.485,6.8877 16.50242,17.9437 23.36468,23.44651 52.9649,42.4722 126.04899,45.6029 183.22337,7.84872 18.23864,-12.04359 35.5915,-29.66766 46.78921,-47.52048 1.79456,-2.86111 3.43134,-5.20727 3.63729,-5.21369 0.20595,-0.006 0.68798,2.06635 1.07118,4.60617 3.42965,22.73133 1.54614,44.28287 -5.71102,65.3467 -4.17236,12.11022 -12.51502,27.42109 -20.64261,37.88437 -22.94228,29.53537 -57.8165,48.93359 -95.28134,52.99871 -6.51687,0.70712 -25.51883,0.71191 -31.55119,0.008 z"
         style="opacity:1;fill:#ff8f00;fill-opacity:1;fill-rule:evenodd;stroke:none;stroke-width:1.72280514;stroke-linecap:butt;stroke-linejoin:bevel;stroke-miterlimit:4;stroke-dasharray:none;stroke-dashoffset:0;stroke-opacity:1;paint-order:fill markers stroke" />
      <path
         d="m 348.72248,522.7002 -3.55645,-3.6192 1.98549,-1.67876 c 1.09201,-0.92332 2.83487,-1.85152 3.87302,-2.06267 1.55723,-0.31672 2.12216,-0.11368 3.22821,1.16024 0.73737,0.84928 1.33478,2.26656 1.32758,3.14951 -0.0149,1.82092 -2.05534,6.67009 -2.80672,6.67009 -0.27207,0 -2.09508,-1.62864 -4.05113,-3.61921 z m -8.62118,31.11654 c 0,-0.29431 -0.80846,-0.6968 -1.79659,-0.89442 -2.38548,-0.4771 -6.02519,-4.0272 -8.63005,-8.41757 -4.26823,-7.19391 -3.93419,-10.68627 1.18912,-12.43196 l 2.71265,-0.92429 2.11957,1.86101 c 2.45411,2.15474 6.25167,7.55497 7.62619,10.84466 1.06846,2.55718 1.23551,5.84423 0.37841,7.44574 -0.66968,1.25131 -3.5993,3.29987 -3.5993,2.51683 z m -77.14038,24.17634 c -0.15961,-0.72837 -0.36397,-3.26888 -0.45414,-5.64557 l -0.16395,-4.32126 2.84899,10e-4 c 1.98185,9.5e-4 2.95338,0.27338 3.19197,0.89512 0.50307,1.31098 1.28655,1.08973 1.58251,-0.44689 0.18674,-0.96951 0.28069,-0.80455 0.33937,0.59585 0.0446,1.06508 0.33622,1.93651 0.64799,1.93651 0.69812,0 0.10286,-10.18181 -0.64271,-10.99344 -0.30256,-0.32936 -0.5606,0.79181 -0.61711,2.68133 l -0.0971,3.24736 -0.34977,-3.27718 -0.34976,-3.27718 -1.48963,2.22707 c -1.20752,1.8053 -1.85636,2.22846 -3.42614,2.23443 -1.63993,0.006 -1.93651,-0.20802 -1.93651,-1.39908 0,-0.77356 -0.17051,-2.65048 -0.37892,-4.17095 l -0.37891,-2.76449 h 3.34376 c 2.26369,0 3.96034,0.37496 5.25259,1.16082 1.04985,0.63845 2.12886,1.02482 2.3978,0.85861 0.26894,-0.16622 0.48899,0.11581 0.48899,0.62673 0,1.66324 0.86967,0.97082 2.02149,-1.60949 l 1.12771,-2.5263 0.46682,2.86765 c 0.25676,1.5772 0.95588,3.55663 1.55361,4.39872 0.59774,0.8421 1.40226,2.07724 1.78783,2.74475 1.13512,1.96516 2.36948,2.32354 9.04952,2.62737 7.88768,0.35876 9.61458,0.9858 9.61458,3.49106 0,2.06657 -1.68815,3.97154 -4.44549,5.01644 -2.43664,0.92338 -6.57984,-0.66975 -8.05645,-3.09784 -0.99396,-1.63444 -1.129,-1.68826 -1.69704,-0.67627 -0.57987,1.03309 -0.6414,1.03651 -1.01888,0.0567 -0.73166,-1.89902 -1.32247,-1.088 -2.0618,2.83029 -0.40193,2.13017 -0.96609,3.87303 -1.25369,3.87303 -0.2876,0 -1.12867,-0.93515 -1.86905,-2.0781 -1.29329,-1.99651 -2.23991,-2.66313 -2.23991,-1.57736 0,0.28352 0.53626,1.19725 1.1917,2.0305 0.65543,0.83325 1.1917,1.70664 1.1917,1.94086 0,0.92057 -1.93699,-1.25214 -3.03491,-3.40425 -0.63815,-1.25087 -1.28343,-2.2743 -1.43397,-2.2743 -0.15054,0 -0.80922,1.04969 -1.46373,2.33264 -1.20463,2.36127 -2.47592,3.0589 -7.01989,3.8522 -1.64585,0.28734 -1.97189,0.14228 -2.21945,-0.9875 z m -27.87824,-0.28947 c -1.2842,-0.28135 -1.32517,0.82412 0.44689,-12.05808 0.81929,-5.95596 1.48962,-10.93974 1.48962,-11.07508 0,-0.56352 2.24085,-0.17745 4.62403,0.79666 2.15181,0.87954 2.65519,1.41576 3.21627,3.42614 1.32803,4.75839 -0.96267,14.29375 -4.11969,17.14875 -1.35428,1.22472 -4.14342,2.09325 -5.65712,1.76161 z m -47.66432,-29.18878 c -0.23779,-1.92764 -0.0218,-2.45609 1.5734,-3.84881 1.01697,-0.8879 2.08058,-1.62527 2.36358,-1.63859 0.4798,-0.0226 0.0961,4.33162 -0.58864,6.67911 -0.17692,0.60658 -0.88315,1.04273 -1.68842,1.04273 -1.15338,0 -1.43026,-0.37271 -1.65992,-2.23444 z m 56.45311,48.36405 c -0.98315,-0.13674 -4.33481,-0.53763 -7.44813,-0.89088 -38.78906,-4.40116 -77.1352,-26.53051 -101.20831,-58.40676 -4.17706,-5.53103 -10.02665,-14.51988 -12.05313,-18.52159 l -1.71505,-3.38674 1.74184,-5.84894 c 16.45298,-55.24779 67.63509,-94.2024 127.53506,-97.06672 37.74967,-1.80512 77.16398,13.33853 103.91171,39.92466 11.3162,11.24784 19.64898,22.83935 26.59292,36.9927 3.67181,7.48399 9.5202,23.21439 9.5202,25.60644 0,1.15369 -4.33423,8.40834 -9.26468,15.50724 -21.02914,30.27793 -54.09174,52.9594 -90.24232,61.90766 -12.87377,3.18662 -19.07263,3.97709 -33.0697,4.21703 -6.88207,0.11797 -13.31725,0.10263 -14.30041,-0.0341 z m 28.89875,-13.73958 c 6.02455,-0.32792 7.74972,-0.62774 9.02607,-1.56868 1.20504,-0.88836 3.07699,-1.27172 7.92093,-1.62217 5.51037,-0.39865 6.71016,-0.6859 9.14023,-2.18829 6.12924,-3.78942 7.45868,-12.10825 2.63295,-16.47547 -0.65688,-0.59448 -1.55576,-1.01472 -1.99751,-0.93389 -0.44175,0.0808 -1.87571,-0.16802 -3.18659,-0.553 -1.31087,-0.38499 -3.95082,-0.70147 -5.86657,-0.7033 -3.93574,-0.004 -6.80435,-1.3241 -7.31733,-3.36796 -0.44708,-1.78135 0.70792,-3.69734 2.49999,-4.14712 1.86285,-0.46755 6.81234,0.86372 7.22681,1.9438 0.47132,1.22824 1.25942,0.95339 1.54697,-0.53951 0.21679,-1.12557 0.27124,-1.07214 0.33937,0.33309 0.1032,2.12894 1.00262,1.61387 1.49683,-0.85719 0.35712,-1.78558 0.43771,-1.83545 1.46454,-0.90617 1.58559,1.43494 1.80751,1.23943 1.46783,-1.2931 -0.26922,-2.00719 -0.0809,-2.46535 1.59204,-3.87303 1.04356,-0.87809 2.34604,-1.59554 2.89441,-1.59431 0.6246,10e-4 0.28787,0.43462 -0.90147,1.15982 -1.04417,0.63667 -2.19022,1.70269 -2.54678,2.36894 -0.71592,1.33771 -0.2371,4.21506 0.70143,4.21506 0.34592,0 0.43085,-0.65743 0.20247,-1.56733 -0.43762,-1.74365 1.49468,-4.39429 3.19834,-4.38734 0.63813,0.002 2.40946,3.27354 5.52973,10.21123 4.4793,9.95934 4.56873,10.25019 3.68014,11.96854 -1.06804,2.06537 -0.79644,2.59294 0.87448,1.69869 0.66196,-0.35427 1.55636,-0.62598 1.98755,-0.6038 0.4312,0.0222 0.18069,0.33129 -0.55668,0.6869 -1.44533,0.69707 -1.80939,1.68296 -0.59585,1.61361 0.40965,-0.0234 3.14624,-1.17492 6.08132,-2.55892 l 5.3365,-2.51636 -2.89342,-1.46306 -2.89343,-1.46307 -4.68127,-10.37397 c -2.57471,-5.70569 -4.55615,-10.4991 -4.40322,-10.65203 0.15294,-0.15294 1.34309,-0.47282 2.64479,-0.71085 1.78867,-0.32709 2.59485,-0.20465 3.30079,0.50129 0.84821,0.84821 0.93408,0.5389 0.93408,-3.36455 0,-2.36425 -0.118,-4.29864 -0.26222,-4.29864 -0.14422,0 -6.23321,2.68133 -13.53108,5.95851 -11.12773,4.99701 -13.75356,5.95904 -16.27262,5.96183 -4.37237,0.005 -7.44975,1.0463 -9.67913,3.27568 -1.08046,1.08046 -1.96447,1.69032 -1.96447,1.35525 0,-0.33507 -0.44088,-0.24333 -0.97973,0.20387 -0.87382,0.72521 -0.93181,0.66217 -0.53653,-0.58326 0.407,-1.28234 0.30454,-1.36987 -1.25471,-1.07192 -0.93385,0.17845 -5.18363,0.48384 -9.44396,0.67867 -4.26033,0.19482 -9.19949,0.5148 -10.97591,0.71106 l -3.22986,0.35683 1.82328,1.55724 c 1.65776,1.41587 1.85517,1.9711 2.17454,6.11615 0.27427,3.55983 0.17201,4.6277 -0.46665,4.87278 -0.6045,0.23197 -0.92237,-0.52218 -1.21824,-2.89026 -0.38572,-3.08713 -2.44003,-7.13522 -3.62301,-7.13923 -0.31466,-10e-4 -1.51058,-0.70525 -2.65759,-1.56485 -2.49349,-1.86867 -4.85612,-2.65645 -10.42738,-3.47682 -2.29402,-0.3378 -5.07562,-0.76725 -6.18131,-0.95435 l -2.01036,-0.34018 1.17168,1.97737 1.17168,1.97737 -1.59859,11.85547 c -1.30357,9.66756 -1.80209,12.00426 -2.70128,12.66177 -1.41629,1.03561 -1.9115,0.3179 -2.43356,-3.52689 -0.21237,-1.56401 -0.61891,-2.98754 -0.90343,-3.16338 -0.72387,-0.44737 -0.6444,2.2933 0.15902,5.48395 0.39039,1.55042 0.45337,2.89012 0.14896,3.16888 -0.29005,0.26562 -3.47683,-0.53511 -7.08172,-1.77938 -3.6049,-1.24428 -6.13542,-2.28341 -5.62339,-2.30918 0.51203,-0.0257 3.31068,0.75755 6.21924,1.7407 2.90855,0.98315 5.49947,1.78755 5.7576,1.78755 0.25813,0 0.22398,-0.64532 -0.0759,-1.43406 -0.29987,-0.78873 -0.72753,-3.04541 -0.95035,-5.01484 l -0.40512,-3.58079 -2.30011,2.41793 c -2.23429,2.34873 -2.38615,2.40775 -5.30553,2.06199 -1.65298,-0.19577 -3.24561,-0.5044 -3.53918,-0.68583 -0.29357,-0.18144 1.19791,-5.51765 3.31439,-11.85824 3.26369,-9.77745 4.07089,-11.62985 5.31476,-12.19659 1.53457,-0.6992 1.73872,-1.15243 1.0106,-2.24362 -0.51538,-0.77237 -10.20406,-4.07666 -10.64894,-3.63178 -0.16724,0.16723 0.10027,1.08597 0.59446,2.04163 0.85651,1.65631 0.72489,2.27817 -2.81476,13.29888 -3.64527,11.34955 -3.74825,11.57135 -5.6214,12.10857 -1.04946,0.30098 -1.90811,0.73413 -1.90811,0.96255 0,0.22842 1.64744,0.91412 3.66098,1.52377 2.01353,0.60965 3.34995,1.21212 2.96982,1.33884 -0.38014,0.12671 -1.93898,-0.19479 -3.4641,-0.71446 -1.52511,-0.51966 -2.86802,-0.84976 -2.98422,-0.73355 -0.59941,0.59942 2.32608,1.77591 12.60173,5.06783 9.79918,3.13928 11.41698,3.50758 12.21905,2.78172 0.79385,-0.71842 1.76577,-0.71497 6.87885,0.0244 6.67312,0.965 10.58127,0.69007 13.2486,-0.93204 2.41593,-1.46921 4.64018,-4.51493 5.5528,-7.60358 0.81784,-2.76787 2.01732,-3.54462 1.3802,-0.89378 -1.18094,4.9135 -4.98399,9.13893 -9.30362,10.3369 -1.93565,0.53682 -4.0357,0.54279 -8.82407,0.0251 -7.52259,-0.81334 -8.48021,-0.83382 -8.07156,-0.17261 0.50397,0.81545 12.67066,2.04118 15.72078,1.58379 1.53445,-0.23011 3.5039,-0.78759 4.37655,-1.23886 2.44677,-1.26528 5.88185,-5.63819 6.63603,-8.44781 0.63844,-2.37843 2.31731,-3.82679 3.2985,-2.84561 0.21584,0.21585 0.4947,2.41768 0.6197,4.89297 0.22007,4.35809 0.17323,4.54373 -1.48007,5.865 -0.93904,0.75045 -1.57328,1.47777 -1.40942,1.61627 0.571,0.48262 25.86555,-1.36322 26.20489,-1.91227 0.18805,-0.30427 0.65584,-0.3592 1.03954,-0.12206 1.90348,1.17642 -0.89333,1.76179 -11.4598,2.39851 -6.2296,0.37538 -11.92742,0.68251 -12.66182,0.68251 -0.73439,0 -1.33526,0.30771 -1.33526,0.6838 0,0.49217 1.54456,0.57898 5.51162,0.30975 3.03139,-0.20573 8.86327,-0.55647 12.95975,-0.77944 z m -75.07715,-10.54821 c 0,-0.11255 -0.51694,-1.70717 -1.14876,-3.54359 -1.05154,-3.05633 -1.08347,-3.74675 -0.37728,-8.15722 0.42432,-2.65005 0.90033,-4.94711 1.0578,-5.10458 0.15748,-0.15747 1.0117,0.28428 1.89828,0.98166 0.88659,0.69739 1.6949,1.17038 1.79626,1.05108 0.10136,-0.11929 0.32965,-1.69722 0.50733,-3.50652 0.36288,-3.69533 -0.57042,-5.77694 -2.29364,-5.11567 -0.88847,0.34093 -0.95476,0.032 -0.59116,-2.75556 0.66618,-5.10741 0.93449,-5.69906 2.92999,-6.46073 1.24782,-0.47629 1.56484,-0.7987 0.94105,-0.95702 -1.63479,-0.41492 -4.01944,0.86736 -4.29515,2.30959 -0.22843,1.19489 -0.27294,1.15643 -0.34358,-0.29682 -0.0662,-1.36194 0.25773,-1.78771 1.75787,-2.31067 2.2699,-0.79129 1.89567,-1.2157 -3.87093,-4.38996 l -4.1174,-2.26644 0.37279,1.86395 c 0.33773,1.68868 0.0815,2.11874 -2.72464,4.57351 -1.70359,1.49027 -3.27187,2.70957 -3.48507,2.70957 -0.21319,0 -0.52333,-0.51892 -0.68918,-1.15315 -0.37054,-1.41695 -1.80756,-1.12627 -4.27753,0.86526 -1.72638,1.39197 -1.7384,1.4406 -0.65247,2.64054 1.07832,1.19152 1.07759,1.25491 -0.0288,2.50522 -2.13327,2.41083 -8.02191,5.7996 -10.80251,6.21657 l -2.72167,0.40814 1.42774,1.14834 c 1.41763,1.1402 1.41825,1.14567 0.0871,0.77291 -2.89771,-0.81145 -1.08355,0.90852 4.01729,3.8087 2.94688,1.67551 5.56118,3.04674 5.80954,3.04719 0.24837,4.5e-4 0.36128,-1.44774 0.2509,-3.21821 -0.18703,-2.99979 -0.0507,-3.385 2.00139,-5.65645 1.21115,-1.34059 2.44102,-2.28977 2.73305,-2.10929 0.29204,0.18049 0.53097,1.51894 0.53097,2.97433 0,1.45539 0.25972,2.64616 0.57716,2.64616 0.31742,0 0.42948,0.3848 0.249,0.85511 -0.25933,0.67582 0.32222,0.608 2.77357,-0.32344 2.72285,-1.0346 3.05633,-1.06032 2.73024,-0.21053 -0.2043,0.53241 -0.37146,1.73134 -0.37146,2.66428 0,2.12354 -1.39126,3.56295 -3.4687,3.58875 l -1.59603,0.0199 1.40667,1.17187 c 1.07136,0.89253 1.17789,1.17188 0.44689,1.17188 -1.92662,0 -0.83074,0.96266 4.85498,4.26476 5.44377,3.16159 6.69809,3.77519 6.69809,3.27665 z M 344.5267,556.53067 c 3.57424,-1.97612 5.87201,-5.63162 6.17527,-9.82411 0.13737,-1.89917 -0.0331,-4.47767 -0.37893,-5.72998 -0.51018,-1.84774 -0.44863,-2.55177 0.32654,-3.73483 l 0.95525,-1.45788 2.59014,2.54204 c 2.04962,2.01155 2.59014,2.96465 2.59014,4.5672 0,1.51483 0.21553,1.94246 0.85528,1.69696 0.47041,-0.18051 0.97547,-0.008 1.12237,0.38314 0.15082,0.40166 2.25013,-1.23414 4.82225,-3.75754 4.92935,-4.83598 4.93108,-5.14243 0.03,-5.30326 -1.33201,-0.0437 -2.55908,-0.81996 -4.64693,-2.93968 l -2.83697,-2.88029 1.05021,-1.82987 1.0502,-1.82988 3.89465,1.98501 c 2.14205,1.09175 5.36576,2.92446 7.16379,4.07268 1.79804,1.14822 3.32129,2.03555 3.385,1.97183 0.0637,-0.0637 0.77141,-1.92191 1.57266,-4.12932 l 1.45683,-4.01348 h -2.63871 c -2.95777,0 -10.0728,-1.49523 -13.06585,-2.74582 l -1.96559,-0.82127 0.86505,-2.07035 c 1.19142,-2.85145 1.07937,-5.62282 -0.32012,-7.91816 -1.42956,-2.34463 -0.58772,-2.61426 0.93017,-0.29792 1.22067,1.86275 1.38271,6.3837 0.30126,8.40443 -0.60534,1.13108 -0.50683,1.35906 0.80233,1.85681 4.31443,1.64034 8.81393,2.57398 12.40908,2.57485 2.21209,5.4e-4 4.02075,0.0286 4.01923,0.0623 -0.002,0.0337 -0.66549,1.67013 -1.47549,3.63644 -1.57334,3.81935 -1.86776,5.66057 -0.90515,5.66057 0.32771,0 0.60221,-0.46923 0.60999,-1.04273 0.0114,-0.84179 1.43459,-4.62623 3.31538,-8.81615 0.18303,-0.40774 -1.52871,-0.62215 -4.95103,-0.62016 -4.90122,0.003 -11.5942,-1.35664 -12.29983,-2.49836 -0.15258,-0.24689 0.005,-1.68541 0.35137,-3.19672 0.53381,-2.33275 0.45862,-3.09054 -0.49771,-5.01645 -1.2836,-2.58496 -3.29802,-4.20866 -5.89331,-4.75022 -1.35962,-0.28371 -1.57359,-0.22102 -0.89378,0.26191 0.71444,0.50752 0.53509,0.63792 -0.89377,0.64987 -4.89373,0.0409 -11.62797,5.52236 -14.35212,11.68216 -1.80501,4.08145 -1.80892,4.52066 -0.0342,3.84592 1.23419,-0.46924 1.88266,-0.051 5.37005,3.46329 2.87939,2.90162 3.78711,4.1762 3.31233,4.65099 -0.47479,0.47478 -1.30071,-0.0476 -3.01382,-1.90607 -2.92972,-3.17837 -6.81932,-5.07501 -10.19397,-4.97074 l -2.53887,0.0784 2.08547,0.43898 c 1.85159,0.38974 1.69856,0.44777 -1.3644,0.51741 -2.10078,0.0478 -4.33644,0.53073 -5.71699,1.23504 -2.46516,1.25762 -6.02732,4.95051 -6.02732,6.24851 0,0.44512 -0.4022,0.96363 -0.89377,1.15227 -1.16939,0.44874 -1.30946,8.1128 -0.14896,8.15085 0.40964,0.0134 1.33884,1.28706 2.06486,2.83029 2.98689,6.34883 8.29603,10.2146 14.14008,10.29588 2.35503,0.0328 2.75153,0.16473 1.81953,0.60566 -0.85834,0.40608 -0.44639,0.46983 1.47261,0.22791 1.46537,-0.18474 3.73258,-0.92652 5.03826,-1.64841 z M 166.113,551.2672 v -3.05717 l 8.1448,-8.6012 c 6.96743,-7.35786 8.34556,-8.55081 9.53361,-8.25263 0.76384,0.19171 1.3888,0.0804 1.3888,-0.24729 0,-0.32771 -0.69204,-0.76954 -1.53787,-0.98183 -1.27084,-0.31896 -1.99509,0.0627 -4.17096,2.19819 -3.1767,3.11769 -3.55534,2.437 -0.42667,-0.76705 1.82023,-1.86408 2.62847,-2.26394 4.61784,-2.28458 l 2.41144,-0.025 -4.46888,-4.23925 -4.46888,-4.23926 -0.17755,2.05511 c -0.17234,1.99467 -0.39806,2.16495 -7.67448,5.78943 -4.1233,2.05386 -7.35797,3.38315 -7.18814,2.95397 0.16982,-0.42919 1.59726,-3.66277 3.17209,-7.18573 2.81939,-6.30712 2.89408,-6.40539 4.8685,-6.40539 1.18506,0 1.85457,-0.2437 1.63693,-0.59585 -0.20254,-0.32772 -1.24424,-0.59585 -2.31488,-0.59585 -1.92671,0 -1.98523,0.0856 -5.71794,8.36392 -2.07422,4.60015 -4.03259,8.5254 -4.35194,8.72277 -0.7222,0.44635 -0.88738,0.85927 3.69965,-9.24817 l 3.82775,-8.43437 h 2.32937 c 1.28116,0 2.24,-0.21893 2.13076,-0.48652 -0.10924,-0.26759 -2.14258,-2.31107 -4.51853,-4.54105 l -4.31992,-4.05453 v 2.31853 c 0,2.16904 -0.5313,2.87136 -8.23996,10.89245 l -8.23997,8.57391 -2.89902,-0.39736 -2.89903,-0.39736 1.71686,1.79202 c 1.96086,2.04669 1.3849,2.45712 -0.69978,0.49866 -0.75719,-0.71135 -1.56215,-1.10792 -1.7888,-0.88127 -0.35246,0.35247 7.55108,8.11451 8.7599,8.60307 0.23408,0.0946 0.60502,-1.18053 0.82431,-2.83364 0.34938,-2.63373 0.92159,-3.59806 4.62414,-7.79297 2.32398,-2.63303 4.32752,-4.68523 4.45231,-4.56043 0.12479,0.12478 -1.36235,3.68829 -3.30476,7.91888 -3.51467,7.65503 -3.52583,7.69701 -2.32179,8.73474 0.83897,0.72309 0.95217,1.04274 0.36924,1.04274 -0.46234,0 -1.16237,-0.32176 -1.55564,-0.71502 -0.55612,-0.55613 -0.71502,-0.53763 -0.71502,0.0833 0,0.43906 0.46924,1.14556 1.04274,1.56998 0.90032,0.66629 2.13362,0.20626 9.02949,-3.36803 4.39271,-2.27684 8.13206,-3.99439 8.30968,-3.81678 0.17761,0.17761 -1.64406,2.30314 -4.04816,4.72339 -4.13498,4.16277 -4.48727,4.38308 -6.52212,4.0788 l -2.15105,-0.32164 3.25682,3.35189 c 3.76096,3.87074 3.41546,4.59292 -0.40397,0.84443 -1.50132,-1.47343 -2.55783,-2.14916 -2.56198,-1.63859 -0.007,0.83537 8.17777,8.83374 9.09378,8.88691 0.24578,0.0143 0.44688,-1.34978 0.44688,-3.03123 z"
         style="opacity:1;fill:#ffed00;fill-opacity:1;fill-rule:evenodd;stroke:none;stroke-width:1.72280514;stroke-linecap:butt;stroke-linejoin:bevel;stroke-miterlimit:4;stroke-dasharray:none;stroke-dashoffset:0;stroke-opacity:1;paint-order:fill markers stroke"
         transform="scale(0.26458333)"
         id="path1991"
         inkscape:connector-curvature="0" />
      <path
         transform="scale(0.26458333)"
         inkscape:connector-curvature="0"
         id="path1997"
         d="m 120.32648,619.5183 c -2.06987,-3.30491 -6.23103,-13.29829 -8.85102,-21.25649 -2.97849,-9.04713 -5.27835,-18.99383 -6.62347,-28.64598 -1.03347,-7.41585 -1.03347,-30.12272 0,-37.53857 7.13197,-51.1767 37.56192,-93.94478 82.91233,-116.52995 44.90224,-22.36198 98.48156,-20.86252 141.82418,3.96906 21.64936,12.40321 41.01569,30.98662 53.75595,51.58278 24.26091,39.22067 29.45507,87.96242 13.94007,130.81304 -2.21041,6.10491 -6.32033,15.37167 -6.81751,15.37167 -0.88776,0 -8.45547,-3.8253 -8.45547,-4.27403 0,-0.28739 0.90437,-2.32572 2.00972,-4.52963 5.46772,-10.90192 10.01821,-24.90051 12.34302,-37.97059 1.60199,-9.00642 2.20236,-27.68037 1.17987,-36.69851 -3.69342,-32.57477 -17.96778,-61.74426 -41.2362,-84.26567 -21.18071,-20.50072 -46.67906,-33.2803 -76.88469,-38.53405 -6.88152,-1.19692 -9.93098,-1.3809 -22.83822,-1.3779 -16.7229,0.004 -22.91032,0.71305 -36.41101,4.17323 -53.1679,13.62674 -94.05342,56.58452 -103.66797,108.92233 -3.7716,20.5311 -3.17889,39.59881 1.83694,59.0956 2.63636,10.24766 4.83483,16.1257 9.88736,26.43575 2.30561,4.70475 4.10875,8.61995 4.00699,8.70043 -0.22821,0.18046 -10.5978,3.89814 -10.87296,3.89814 -0.10903,0 -0.57609,-0.60329 -1.03791,-1.34066 z"
         style="opacity:1;fill:#ffffff;fill-opacity:1;fill-rule:evenodd;stroke:none;stroke-width:1.72280514;stroke-linecap:butt;stroke-linejoin:bevel;stroke-miterlimit:4;stroke-dasharray:none;stroke-dashoffset:0;stroke-opacity:1;paint-order:fill markers stroke" />
      <path
         sodipodi:nodetypes="ccccccsscssscscscscccsssccsccsccsssccsscscsccssccc"
         inkscape:connector-curvature="0"
         id="path2000"
         d="m 71.884815,117.47356 c -0.389052,-0.0156 -1.06426,0.4129 -1.562683,0.69311 -0.531652,0.29888 -0.999331,0.53035 -1.584073,0.83166 -0.578687,0.2982 -1.180666,0.619 -1.535575,0.98423 -0.357983,-0.29092 -0.85246,-0.55414 -1.33262,-0.80157 -0.584744,-0.30131 -1.052175,-0.53307 -1.583825,-0.83196 -0.531652,-0.29889 -1.264711,-0.76615 -1.636802,-0.68357 -0.372092,0.0826 -0.852507,0.41574 -1.396292,1.02178 -0.543787,0.60604 -1.22472,1.59195 -1.671622,2.84661 -0.446903,1.25467 -0.808796,2.9987 -1.112259,4.43783 -0.303462,1.43913 -0.579944,2.7192 -0.611344,3.56414 -0.0314,0.84495 0.122605,1.54683 0.386753,2.31383 0.264149,0.76699 0.690139,1.72475 0.931692,2.44106 0.241551,0.7163 0.40041,1.44023 0.564585,2.17317 0.164175,0.73294 0.342352,1.51371 0.320346,2.20178 -0.02201,0.68807 -0.192376,1.17948 -0.486489,1.67316 -0.294113,0.49368 -1.140753,1.21024 -0.724013,0.96069 0.416742,-0.24955 1.309619,-0.78413 2.304853,-1.0772 0.995236,-0.29307 3.423468,-0.5355 3.221621,-0.91152 -0.201845,-0.37603 -0.596296,-1.11097 -0.903834,-1.82454 -0.307538,-0.71357 -0.51027,-1.36967 -0.80783,-2.31352 -0.29756,-0.94385 -0.69365,-2.18648 -0.969247,-3.24531 -0.275598,-1.05882 -0.477046,-2.16196 -0.393967,-2.86717 0.08308,-0.7052 0.390556,-1.42633 0.708344,-2.0367 0.317789,-0.61037 0.688171,-1.19153 1.064505,-1.80755 0.376336,-0.61602 1.104628,-1.85873 1.454741,-1.5504 0.350114,0.30834 1.123905,1.04753 1.602976,1.68479 0.479071,0.63726 1.080621,1.5849 1.178502,1.64783 0.469996,-0.40502 0.697468,-1.19881 1.163907,-1.8302 0.479072,-0.63726 1.252863,-1.37675 1.602976,-1.68508 0.350114,-0.30833 1.078406,0.93438 1.454741,1.55039 0.376336,0.61602 0.746717,1.19718 1.064506,1.80755 0.317789,0.61038 0.625264,1.3315 0.708344,2.03671 0.08308,0.7052 -0.118369,1.80834 -0.393967,2.86717 -0.275597,1.05882 -0.671686,2.30146 -0.969247,3.24531 -0.29756,0.94385 -0.500293,1.60025 -0.80783,2.31382 -0.307539,0.71357 -0.701988,1.44821 -0.903835,1.82423 -0.201846,0.37603 2.226386,0.61846 3.221621,0.91153 0.995235,0.29307 1.888112,0.82795 2.304853,1.0775 0.41674,0.24954 -0.4299,-0.46701 -0.724014,-0.96069 -0.294113,-0.49369 -0.464482,-0.98509 -0.486488,-1.67317 -0.022,-0.68806 0.156171,-1.46884 0.320347,-2.20178 0.164175,-0.73293 0.323034,-1.45686 0.564586,-2.17317 0.241551,-0.7163 0.667541,-1.67436 0.931691,-2.44136 0.264148,-0.76699 0.418154,-1.46887 0.386752,-2.31381 -0.0314,-0.84495 -0.307633,-2.12503 -0.611094,-3.56415 -0.303463,-1.43913 -0.665605,-3.18317 -1.112508,-4.43783 -0.446903,-1.25467 -1.127836,-2.24027 -1.671621,-2.84632 -0.543787,-0.60604 -1.024202,-0.93949 -1.396294,-1.02207 -0.02326,-0.005 -0.04793,-0.008 -0.07387,-0.009 z"
         style="fill:#f94649;fill-opacity:1;stroke:#000000;stroke-width:0.69999999;stroke-linecap:butt;stroke-linejoin:miter;stroke-miterlimit:4;stroke-dasharray:none;stroke-opacity:1" />
    </g>
  </g>
</svg>
